<?xml version="1.0" standalone="no"?>
<!DOCTYPE svg PUBLIC "-//W3C//DTD SVG 1.1//EN" "http://www.w3.org/Graphics/SVG/1.1/DTD/svg11.dtd" >
<svg xmlns="http://www.w3.org/2000/svg" xmlns:xlink="http://www.w3.org/1999/xlink" version="1.1">
<metadata></metadata>
<defs>
<font id="sansa_problack" horiz-adv-x="1280" >
<font-face units-per-em="2048" ascent="1638" descent="-410" />
<missing-glyph horiz-adv-x="544" />
<glyph unicode="&#xfb01;" horiz-adv-x="1400" d="M0 801v319h127v33q0 92 29.5 164t85 121t133.5 73.5t170 24.5h207v-297h-17q-49 0 -74.5 -2t-45 -11t-30 -30.5t-10.5 -58.5v-17h713v-1120h-448v801h-265v-801h-448v801h-127zM840 1217v319h448v-319h-448z" />
<glyph unicode="&#xfb02;" horiz-adv-x="1400" d="M0 801v319h129v33q0 92 29.5 164t85 121t132.5 73.5t169 24.5h743v-1536h-448v1239h-105q-49 0 -74.5 -2t-45 -11t-30 -30.5t-10.5 -58.5v-17h160v-319h-160v-801h-446v801h-129z" />
<glyph horiz-adv-x="0" />
<glyph horiz-adv-x="682" />
<glyph unicode=" "  horiz-adv-x="544" />
<glyph unicode="&#x09;" horiz-adv-x="544" />
<glyph unicode="&#xa0;" horiz-adv-x="544" />
<glyph unicode="!" horiz-adv-x="671" d="M113 1536h446l-22 -961h-402zM129 0v385h416v-385h-416z" />
<glyph unicode="&#x22;" horiz-adv-x="1071" d="M96 1536h416l-47 -416h-322zM575 1536h416l-47 -416h-319z" />
<glyph unicode="#" horiz-adv-x="1472" d="M63 248v368h218v304h-218v368h218v248h366v-248h176v248h369v-248h215v-368h-215v-304h215v-368h-215v-248h-369v248h-176v-248h-366v248h-218zM647 616h176v304h-176v-304z" />
<glyph unicode="$" d="M80 47v338h16q39 -12 92.5 -23.5t112.5 -21.5t114.5 -15.5t96.5 -5.5h47q45 0 82 6.5t65.5 21.5t45 42t16.5 68q0 31 -12.5 53t-34 36.5t-45 23t-68.5 22.5l-209 63q-70 23 -127 59t-100 90t-67.5 129t-24.5 171q0 98 37 175t102.5 131t152.5 86t187 46v234h281v-228 q41 -4 84 -9t84 -12t75.5 -15.5t61.5 -16.5v-328h-17q-29 8 -76.5 17.5t-104 16.5t-109 11.5t-86.5 4.5h-39q-37 0 -69 -4.5t-58.5 -15.5t-42 -32.5t-15.5 -52.5q0 -29 10.5 -50.5t29 -36.5t40 -25.5t47.5 -16.5l209 -55q86 -23 150.5 -62t109.5 -96t69 -135t24 -178 t-34 -179t-94.5 -135.5t-141.5 -92.5t-179 -52v-254h-281v240q-41 2 -95 8t-111.5 14t-109.5 19.5t-91 21.5z" />
<glyph unicode="%" horiz-adv-x="2111" d="M129 1100q0 123 24.5 209t73.5 138t124 75.5t179 23.5t179 -23.5t123.5 -74.5t72 -137t23.5 -211q0 -123 -23.5 -207t-73 -136t-123.5 -77t-178 -25q-106 0 -181 25t-124 77t-72.5 136t-23.5 207zM440 1100q0 -70 3 -109t11.5 -63.5t26.5 -35.5t49 -11t47.5 11t25.5 35.5 t11 63.5t2 109t-2 109.5t-11 64t-25.5 37t-47.5 12.5t-49 -12.5t-26.5 -37t-11.5 -64.5t-3 -109zM575 0v33l760 1503h201v-33l-760 -1503h-201zM1202 436q0 125 24.5 210t74 137.5t123 76t178.5 23.5q104 0 178.5 -23.5t124 -75t73 -137.5t23.5 -211q0 -123 -23.5 -207 t-73 -136t-124 -76.5t-178.5 -24.5q-106 0 -181 24.5t-123.5 76.5t-72 136t-23.5 207zM1511 436q0 -70 3.5 -108.5t11.5 -64t26.5 -37t49.5 -11.5t47 11.5t25 37t11.5 64.5t2.5 108q0 70 -2.5 109t-11.5 64.5t-25.5 36.5t-46.5 11q-31 0 -49.5 -11t-26.5 -36.5t-11.5 -64.5 t-3.5 -109z" />
<glyph unicode="&#x26;" horiz-adv-x="1439" d="M63 449q0 59 18.5 116.5t53.5 105.5t82 84t102 54q-43 23 -78.5 51.5t-62 68.5t-42 92t-15.5 116q0 106 44 186t122 130t178 74.5t215 24.5h104q37 0 87.5 -4t104.5 -12t101 -18.5t76 -22.5v-342h-16q-33 8 -78 16.5t-94.5 15.5t-96.5 11t-84 4h-41q-45 0 -77.5 -8 t-54 -23.5t-33 -40t-11.5 -57.5t11.5 -56.5t34 -40t53 -23.5t69.5 -7h641v-336h-96v-536q-39 -14 -107.5 -29.5t-151.5 -29t-166.5 -21.5t-149.5 -8q-135 0 -250 25.5t-203 79.5t-138.5 144.5t-50.5 215.5zM512 479q0 -33 12.5 -59.5t36 -45t60.5 -28.5t84 -10q16 0 34.5 1 t35 4t30.5 5t26 6v256h-135q-39 0 -71.5 -6t-58 -20.5t-40 -40t-14.5 -62.5z" />
<glyph unicode="'" horiz-adv-x="608" d="M96 1536h416l-47 -416h-322z" />
<glyph unicode="(" horiz-adv-x="894" d="M96 608v64q0 141 24.5 270t72 240.5t117 201t155.5 152.5h399v-33q-92 -80 -155.5 -177t-99.5 -202.5t-50 -217t-14 -234.5v-64q0 -123 14 -234.5t50 -217t99.5 -202.5t155.5 -177v-33h-399q-86 63 -155.5 152.5t-117 201t-72 240.5t-24.5 270z" />
<glyph unicode=")" horiz-adv-x="894" d="M33 -223q92 80 155.5 177t99.5 202.5t50 217t14 234.5v64q0 123 -14 234.5t-50 217t-99.5 202.5t-155.5 177v33h399q86 -63 154.5 -152.5t117 -201t73 -240.5t24.5 -270v-64q0 -141 -24.5 -270t-73 -240.5t-117 -201t-154.5 -152.5h-399v33z" />
<glyph unicode="*" horiz-adv-x="1024" d="M72 1024l153 88l-151 88l141 250l154 -88v174h286v-176l154 88l143 -248l-153 -88l151 -88l-141 -250l-154 88v-174h-286v176l-154 -88z" />
<glyph unicode="+" d="M127 567v369h328v297h366v-297h330v-369h-330v-327h-366v327h-328z" />
<glyph unicode="," horiz-adv-x="671" d="M33 -256l127 641h415v-162l-294 -479h-248z" />
<glyph unicode="-" horiz-adv-x="831" d="M63 575v353h705v-353h-705z" />
<glyph unicode="." horiz-adv-x="671" d="M160 0v385h415v-385h-415z" />
<glyph unicode="/" horiz-adv-x="1191" d="M63 -223l672 1759h393v-33l-679 -1759h-386v33z" />
<glyph unicode="0" d="M47 768q0 217 36 367.5t109.5 242.5t184 133t264.5 41q158 0 267.5 -39.5t182 -131t107.5 -242t35 -371.5q0 -215 -35 -364.5t-107.5 -242.5t-183 -135t-266.5 -42t-267.5 42t-184 135t-107.5 242.5t-35 364.5zM479 768q0 -137 4 -213t19.5 -125t48.5 -71.5t90 -22.5 t89 22.5t47.5 71.5t19.5 125t4 213t-4 213t-19.5 125t-47.5 71.5t-89 22.5t-90 -22.5t-48.5 -71.5t-19.5 -125t-4 -213z" />
<glyph unicode="1" d="M113 961v366l512 209h319v-1536h-448v1104l-367 -143h-16z" />
<glyph unicode="2" d="M96 0v240q0 86 15.5 153.5t47 123.5t81 104.5t120.5 99.5l207 143q70 49 80 56.5t35 31t39 53t14 66.5q0 31 -10 52.5t-31.5 34.5t-54.5 19.5t-80 6.5h-430v352h578q113 0 201.5 -28.5t150 -85t93.5 -136.5t32 -182q0 -82 -19.5 -145.5t-56.5 -115.5t-90 -99.5 t-137 -110.5l-160 -121q-10 -8 -48 -34.5t-54.5 -41t-25.5 -31t-9 -36.5v-17h600v-352h-1088z" />
<glyph unicode="3" d="M113 0v336h399q47 0 86 6t69.5 21.5t49 44t18.5 71.5t-15 73t-42 45t-63.5 21.5t-86.5 6.5h-256v286h314q29 18 51 38t39.5 42.5t27 49t9.5 55.5q0 35 -15.5 56.5t-42 31.5t-59.5 13t-76 3h-391v336h512q119 0 210 -16.5t159.5 -58.5t105.5 -113.5t37 -180.5 q0 -41 -12.5 -86t-39 -88t-67.5 -83t-96 -72q57 -20 101 -50t77 -74t50.5 -102.5t17.5 -132.5q0 -111 -40 -201t-114 -151t-173 -94t-216 -33h-528z" />
<glyph unicode="4" d="M63 201v278q57 117 107.5 253t88.5 277.5t63.5 275.5t39.5 251h478q-18 -131 -49 -260t-73 -254t-94.5 -242.5t-111.5 -226.5h231v278h385v-278h111v-352h-111v-201h-385v201h-680z" />
<glyph unicode="5" d="M96 0v352h457q43 0 79 8.5t62.5 25.5t42 47t15.5 71q0 47 -16.5 75.5t-46.5 43t-67.5 19.5t-93.5 5h-399v889h1008v-352h-609v-185h119q127 0 229.5 -29.5t174 -89t110.5 -152.5t39 -216q0 -129 -44 -226.5t-126 -161t-192.5 -94t-245.5 -30.5h-496z" />
<glyph unicode="6" d="M63 496v432q0 147 51.5 261t145.5 191.5t221 116.5t279 39h344v-336h-369q-55 0 -99 -15.5t-74 -46t-46 -73.5t-20 -98q29 16 57.5 27.5t57 17.5t57 9t59.5 3q127 0 221 -34t157.5 -100.5t95.5 -162.5t32 -223q0 -129 -44 -227.5t-124 -164t-189.5 -97t-242.5 -31.5 q-131 0 -235.5 31.5t-179.5 96t-115 161t-40 223.5zM496 528q0 -47 6 -83.5t22.5 -64.5t47 -44.5t75.5 -16.5q37 0 64.5 12.5t48 36t31 57.5t10.5 79q0 51 -7.5 88t-24.5 61.5t-47 38t-75 13.5q-20 0 -38.5 -1.5t-37 -4.5t-37 -8t-38.5 -11v-152z" />
<glyph unicode="7" d="M96 1184v352h1104v-272q-94 -111 -173 -234t-141.5 -268.5t-98 -313t-35.5 -352.5v-96h-449v96q0 145 37 302t100.5 303.5t144.5 271.5t165 211h-654z" />
<glyph unicode="8" d="M47 432q0 49 14.5 95t40 86t60.5 75t78 64l49 32q-51 31 -89 69t-66 82t-41 97t-13 113q0 113 45 191.5t123 126.5t175 68.5t210 20.5h14q131 0 230.5 -18t172 -63.5t111.5 -123t39 -194.5q0 -41 -13 -86t-36 -89t-51.5 -80t-59.5 -58l-32 -25q53 -31 94 -70.5t70.5 -88 t45 -104.5t15.5 -120q0 -113 -45 -199t-123 -141t-181.5 -81.5t-219.5 -26.5h-48q-133 0 -237.5 23.5t-178 75.5t-113.5 139t-40 210zM479 449q0 -31 9.5 -55.5t26.5 -43t42.5 -29t58.5 -10.5h48q33 0 58.5 11.5t42.5 31t26.5 44t9.5 51.5q0 35 -8.5 62.5t-25.5 48t-43 35.5 t-60 30l-89 32l-30 -32q-16 -18 -29.5 -40t-21 -43.5t-11.5 -45t-4 -47.5zM496 1120q0 -29 8 -50t22.5 -36.5t34 -28t47.5 -22.5l105 -41l14 19q16 20 28.5 38.5t20.5 37t12.5 39t4.5 44.5q0 27 -11.5 46.5t-30 32.5t-41 19.5t-46.5 6.5h-39q-25 0 -48.5 -6.5t-42 -19.5 t-28.5 -32.5t-10 -46.5z" />
<glyph unicode="9" d="M47 1016q0 123 45 220t127 164.5t191.5 101.5t236.5 34q131 0 235.5 -31.5t179.5 -96.5t115 -161t40 -223v-416q0 -147 -51.5 -261t-145.5 -191.5t-221 -116.5t-279 -39h-344v336h369q53 0 95 14.5t71.5 42t47 68.5t23.5 92q-29 -16 -57.5 -27.5t-56 -17.5t-56 -9 t-59.5 -3q-127 0 -221 33.5t-157.5 100t-95.5 163t-32 223.5zM479 1016q0 -49 7.5 -86t24.5 -62.5t47 -39t75 -13.5q20 0 38.5 1t37 4t37 8.5t38.5 11.5v151q0 47 -5 84t-19.5 64.5t-44 44t-74.5 16.5q-37 0 -66.5 -12t-51 -35t-33 -57.5t-11.5 -79.5z" />
<glyph unicode=":" horiz-adv-x="671" d="M160 0v385h415v-385h-415zM160 735v385h415v-385h-415z" />
<glyph unicode=";" horiz-adv-x="671" d="M33 -256l127 641h415v-162l-294 -479h-248zM160 735v385h415v-385h-415z" />
<glyph unicode="&#x3c;" d="M127 582v336l1008 415h16v-407l-594 -176l594 -177v-405l-16 -2z" />
<glyph unicode="=" d="M127 297v367h1024v-367h-1024zM127 793v366h1024v-366h-1024z" />
<glyph unicode="&#x3e;" d="M127 166v407l592 179l-592 174v407h14l1010 -415v-336l-1010 -416h-14z" />
<glyph unicode="?" horiz-adv-x="1064" d="M129 1184v352h455q106 0 190 -22.5t143.5 -67.5t91 -110.5t31.5 -151.5q0 -41 -9 -86t-30.5 -93.5t-57.5 -100.5t-87 -103l-201 -201v-88h-415v88l264 297q25 29 42 53.5t26.5 47t14.5 44t5 45.5q0 33 -10.5 52.5t-33 29t-54 12.5t-86.5 3h-279zM240 0v385h415v-385h-415 z" />
<glyph unicode="@" horiz-adv-x="1951" d="M63 672q0 211 74 375.5t207 277.5t309 170t379 57q195 0 352.5 -48t270 -138t173 -220t60.5 -290q0 -127 -44 -227.5t-124 -169t-186.5 -104.5t-228.5 -36h-377q-90 0 -160 21.5t-118 66t-72.5 110t-24.5 155.5q0 86 25.5 157.5t74.5 121.5t119 78t156 28h399v-520h16 q47 0 86 16t69 54t46.5 99.5t16.5 149.5q0 129 -42 219t-116 142.5t-167 74t-204 21.5q-113 0 -222.5 -28t-204.5 -97.5t-154.5 -197.5t-59.5 -318q0 -172 54.5 -296t146.5 -200t205.5 -109.5t234.5 -33.5q49 0 97.5 2t96.5 6t93 12t82 19h14v-232q-35 -12 -81 -21 t-98 -15.5t-104.5 -9.5t-99.5 -3q-199 0 -374 55.5t-309 166t-210 277.5t-76 382zM881 672q0 -41 8 -67.5t21.5 -41t31.5 -20.5t41 -6h16v303h-16q-23 0 -41 -7.5t-31.5 -26t-21.5 -52t-8 -82.5z" />
<glyph unicode="A" horiz-adv-x="1615" d="M33 0v16q23 98 44 180.5t41.5 154t38 130t52.5 174.5q35 119 79 254t91 261t86 223.5t63 142.5h559q25 -45 64 -141.5t86 -222t92 -262t80 -255.5l75 -254v1q-5 18 14.5 -52.5t41 -152.5t43.5 -181v-16h-479q-6 29 -12.5 57.5t-17.5 80.5t-20.5 90t-17.5 75h-487 q-10 -41 -19.5 -82t-18.5 -79t-17.5 -73.5t-14.5 -68.5h-446zM633 641h325q-27 109 -49 199t-42.5 167.5t-37 136t-28.5 89.5q-12 -31 -30.5 -90.5t-41 -138t-47.5 -171t-49 -192.5z" />
<glyph unicode="B" horiz-adv-x="1456" d="M113 0v1536h751q113 0 201 -23.5t150.5 -75t95 -130t32.5 -187.5q0 -49 -11 -93t-33.5 -84t-57.5 -73.5t-82 -60.5q49 -23 89 -54.5t69 -73.5t44 -95.5t15 -114.5q0 -121 -34.5 -211t-101 -147.5t-163 -85t-221.5 -27.5h-743zM559 336h176q49 0 84 6t59.5 21.5t37 44 t12.5 71.5q0 41 -14.5 70t-39 45t-59.5 23.5t-80 7.5h-176v-289zM559 928h176q37 0 66.5 8t51 24.5t33 43t11.5 61.5t-11.5 60.5t-33 42t-51 24.5t-66.5 8h-176v-272z" />
<glyph unicode="C" horiz-adv-x="1359" d="M63 688v160q0 182 56.5 316t160 220t248 127t320.5 41q53 0 111.5 -4t117 -12t110.5 -20.5t93 -26.5v-465h-352v176q-8 2 -22.5 5t-31 6t-32 4.5t-27.5 1.5q-76 0 -133 -26t-95 -73t-56.5 -111.5t-18.5 -142.5v-176q0 -82 22.5 -149.5t65.5 -116.5t105.5 -76t142.5 -27 h63q41 0 92.5 6.5t101.5 16.5t92 21.5t67 21.5h16v-330q-33 -14 -78 -27.5t-97 -23.5t-102.5 -15t-91.5 -5h-96q-184 0 -325.5 47t-235.5 137t-142.5 221t-48.5 299z" />
<glyph unicode="D" horiz-adv-x="1552" d="M113 0v1536h622q182 0 324.5 -47t238 -135t143.5 -208t48 -265v-193q0 -152 -46 -277.5t-140.5 -218t-236.5 -142.5t-331 -50h-622zM559 336h113q90 0 158.5 24.5t115.5 72.5t70.5 120t23.5 168v127q0 90 -23.5 155.5t-70.5 109.5t-115.5 65.5t-158.5 21.5h-113v-864z " />
<glyph unicode="E" horiz-adv-x="1327" d="M113 416v1120h1087v-336h-641v-256h561v-336h-561v-112q0 -49 7 -80t25.5 -48.5t49.5 -24.5t80 -7h496v-336h-721q-94 0 -167 28.5t-121 83t-71.5 131t-23.5 173.5z" />
<glyph unicode="F" horiz-adv-x="1200" d="M113 0v1024q0 129 40 226.5t114.5 161t181 94t239.5 30.5h449v-336h-385q-47 0 -83 -14.5t-60.5 -42t-37 -65.5t-12.5 -87v-127h545v-336h-545v-528h-446z" />
<glyph unicode="G" horiz-adv-x="1519" d="M63 688v160q0 180 65 314t180.5 221t266 128t322.5 41q68 0 142.5 -8t142 -20.5t119 -25.5t75.5 -25v-336h-16q-31 12 -81 26.5t-112.5 26.5t-132 19.5t-137.5 7.5q-70 0 -137.5 -20.5t-123.5 -65t-90 -115t-34 -168.5v-160q0 -88 24.5 -157.5t70.5 -116.5t107.5 -71 t133.5 -24h63q12 0 27.5 1.5t30 4.5t29 5t26.5 6v217h-193v344h578v-825q-33 -12 -88 -27.5t-124 -29t-143.5 -22.5t-142.5 -9h-80q-184 0 -327.5 49t-241.5 141t-148.5 222t-50.5 292z" />
<glyph unicode="H" horiz-adv-x="1599" d="M113 0v1536h446v-559h481v559h449v-1536h-449v608h-481v-608h-446z" />
<glyph unicode="I" horiz-adv-x="671" d="M113 0v1536h446v-1536h-446z" />
<glyph unicode="J" horiz-adv-x="944" d="M63 0v336h130q53 0 89.5 12t59.5 38t33 64.5t10 94.5v655h-256v336h702v-1024q0 -125 -32.5 -221t-97 -160.5t-161 -97.5t-221.5 -33h-256z" />
<glyph unicode="K" horiz-adv-x="1536" d="M113 0v1536h446v-575h66l372 575h506v-16l-520 -711l553 -793v-16h-512l-416 641h-49v-641h-446z" />
<glyph unicode="L" horiz-adv-x="1120" d="M113 416v1120h446v-1040q0 -49 7 -80t25.5 -48.5t49.5 -24.5t80 -7h366v-336h-591q-94 0 -167 28.5t-121 83t-71.5 131t-23.5 173.5z" />
<glyph unicode="M" horiz-adv-x="1824" d="M113 0v1536h415l375 -592l393 592h416v-1536h-448v856l-320 -440h-96l-289 440v-856h-446z" />
<glyph unicode="N" horiz-adv-x="1599" d="M113 0v1536h383l544 -801v801h449v-1536h-385l-545 801v-801h-446z" />
<glyph unicode="O" horiz-adv-x="1568" d="M63 721v94q0 178 46.5 315.5t137.5 231.5t226 142t311 48t310.5 -48t225.5 -142t137 -231.5t46 -315.5v-94q0 -178 -46 -315.5t-137 -231.5t-225.5 -142t-310.5 -48t-311 48t-226 142t-137.5 231.5t-46.5 315.5zM512 721q0 -96 11.5 -165t40 -118t82.5 -75.5t138 -26.5 t138.5 26.5t83 75.5t40 118t11.5 165v94q0 96 -11.5 165t-40 118t-83 75.5t-138.5 26.5t-138 -26.5t-82.5 -75.5t-40 -118t-11.5 -165v-94z" />
<glyph unicode="P" horiz-adv-x="1409" d="M113 0v1536h671q145 0 253 -33t179.5 -100.5t107.5 -172t36 -247.5t-41 -255t-119 -187.5t-191.5 -115.5t-256.5 -40h-193v-385h-446zM559 721h113q70 0 116 15.5t72.5 47t38.5 80.5t12 119q0 63 -13 105t-43 67t-73.5 35t-109.5 10h-113v-479z" />
<glyph unicode="Q" horiz-adv-x="1568" d="M63 721v94q0 178 46.5 315.5t137.5 231.5t226 142t311 48t310.5 -48t225.5 -142t137 -231.5t46 -315.5v-94q0 -162 -39 -291t-114.5 -222t-189 -148.5t-263.5 -69.5v-23q0 -37 6 -59.5t20.5 -35.5t39 -18.5t61.5 -5.5q31 0 65.5 3.5t67.5 9.5t60.5 13t46.5 13h16v-223 q-20 -10 -50 -18t-63.5 -15.5t-70.5 -11.5t-72 -4q-76 0 -140.5 17.5t-111.5 53t-73.5 90t-26.5 128.5v86q-150 14 -263.5 69.5t-190.5 147.5t-116 222t-39 292zM512 721q0 -96 11.5 -165t40 -118t82.5 -75.5t138 -26.5t138.5 26.5t83 75.5t40 118t11.5 165v94 q0 96 -11.5 165t-40 118t-83 75.5t-138.5 26.5t-138 -26.5t-82.5 -75.5t-40 -118t-11.5 -165v-94z" />
<glyph unicode="R" horiz-adv-x="1488" d="M113 0v1536h671q143 0 255 -29.5t191 -94t121 -165t42 -239.5q0 -78 -13.5 -140.5t-41 -115t-71.5 -97.5t-108 -88q47 -37 96.5 -99t94.5 -139t81.5 -158t57.5 -155v-16h-449q-14 59 -45.5 127t-71.5 131.5t-85 113.5t-86 77h-193v-449h-446zM559 768h162q63 0 106 11.5 t69 37t37 68.5t11 106q0 61 -12 101.5t-39 64t-69 33.5t-103 10h-162v-432z" />
<glyph unicode="S" horiz-adv-x="1327" d="M96 47v338h17q37 -12 91 -23.5t113.5 -21.5t114.5 -15.5t96 -5.5h47q45 0 82 6.5t66 21.5t45 42t16 68q0 31 -12 53t-33.5 36.5t-45 23t-68.5 22.5l-209 63q-70 23 -127.5 60t-100.5 92t-67.5 132t-24.5 173q0 115 50.5 200t138.5 138t199.5 77.5t236.5 24.5h31 q43 0 98 -4t113.5 -12t109.5 -18.5t86 -22.5v-328h-14q-29 8 -77 17.5t-104.5 16.5t-108.5 11.5t-87 4.5h-41q-37 0 -67.5 -4.5t-57.5 -15.5t-42 -32.5t-15 -52.5q0 -29 10 -50.5t28.5 -36.5t40 -25.5t48.5 -16.5l209 -55q86 -23 150.5 -62t109.5 -96t68.5 -135t23.5 -178 q0 -123 -49 -213t-135 -147.5t-199 -85t-242 -27.5h-80q-41 0 -97 5t-117.5 14t-119 20.5t-98.5 23.5z" />
<glyph unicode="T" horiz-adv-x="1343" d="M33 1200v336h1280v-336h-416v-1200h-448v1200h-416z" />
<glyph unicode="U" horiz-adv-x="1568" d="M113 557v979h446v-936q0 -66 15.5 -116t46 -82.5t75.5 -49t105 -16.5q59 0 104 16.5t75 49t45 83t15 115.5v936h449v-977q0 -141 -49 -249.5t-140.5 -181.5t-218 -108.5t-280.5 -35.5q-162 0 -289 33.5t-216 104.5t-136 179.5t-47 255.5z" />
<glyph unicode="V" horiz-adv-x="1552" d="M33 1520v16h479q16 -115 52 -291t78 -361.5t81 -335t61 -212.5q25 66 66 216t86 335.5t82 359.5t53 289h449v-16q-53 -227 -113.5 -459t-122 -437.5t-117 -366.5t-96.5 -257h-606q-43 96 -97.5 259t-114.5 369t-117.5 436t-102.5 456z" />
<glyph unicode="W" horiz-adv-x="2320" d="M33 1520v16h479q12 -119 36.5 -293t56.5 -356t62.5 -330.5t53.5 -220.5q29 59 64.5 198.5t72.5 318.5t68.5 360.5t50.5 322.5h383q18 -141 50 -322.5t69 -360.5t72.5 -318.5t64.5 -198.5q23 72 53.5 220.5t62 330.5t56 356t37.5 293h479v-16q-35 -227 -81 -456.5 t-96 -434.5t-99.5 -368t-92.5 -261h-542q-27 59 -55.5 139t-58.5 178.5t-58.5 209t-53.5 225.5q-23 -115 -51.5 -225.5t-58 -208t-58 -177.5t-55.5 -141h-545q-41 98 -90 261t-99 368t-96 434t-81 457z" />
<glyph unicode="X" horiz-adv-x="1456" d="M16 0v16l461 752l-461 752v16h488l223 -365l225 365h457v-16l-448 -727l479 -777v-16h-488l-239 387l-242 -387h-455z" />
<glyph unicode="Y" horiz-adv-x="1439" d="M0 1520v16h471l281 -616l280 616h408v-16l-488 -912v-608h-448v592z" />
<glyph unicode="Z" horiz-adv-x="1327" d="M63 0v289q78 98 175.5 223t194.5 256t176 245.5t118 186.5h-647v336h1167v-289q-39 -78 -115.5 -196.5t-171 -252.5t-185.5 -257t-159 -205h648v-336h-1201z" />
<glyph unicode="[" horiz-adv-x="944" d="M127 -256v1792h688v-352h-240v-1088h240v-352h-688z" />
<glyph unicode="\" horiz-adv-x="1191" d="M63 1503v33h394l671 -1759v-33h-385z" />
<glyph unicode="]" horiz-adv-x="944" d="M127 96h242v1088h-242v352h688v-1792h-688v352z" />
<glyph unicode="^" d="M55 223v17l416 880h338l416 -880v-17h-410l-174 465l-176 -465h-410z" />
<glyph unicode="_" d="M63 0h1154v-369h-1154v369z" />
<glyph unicode="`" horiz-adv-x="624" d="M0 1571v28h424l201 -286v-33h-273z" />
<glyph unicode="a" horiz-adv-x="1406" d="M63 385v190q0 125 42 225.5t120 172t183.5 109.5t232.5 38h655v-1120h-448v152l-72 -48q-43 -29 -82 -50t-82 -36.5t-92 -24.5t-104 -9q-88 0 -154.5 28.5t-111 80.5t-66 126t-21.5 166zM512 449q0 -33 4 -55.5t14.5 -39t30 -26t47.5 -9.5q20 0 42 6.5t43.5 16.5 t40.5 22.5t42 26.5l72 49v361h-96q-61 0 -105.5 -13.5t-74 -40t-45 -69.5t-15.5 -103v-126z" />
<glyph unicode="b" horiz-adv-x="1406" d="M113 0v1536h446v-567l74 47q43 29 82 50t82 36.5t91 25t103 9.5q88 0 155.5 -29t110.5 -81t64.5 -126t21.5 -166v-190q0 -123 -41.5 -224.5t-119.5 -173t-183.5 -109.5t-230.5 -38h-655zM559 319h96q61 0 106.5 13.5t75 40t45 69.5t15.5 103v127q0 33 -4 55.5t-14.5 38.5 t-30 25.5t-47.5 9.5q-20 0 -43 -6.5t-44.5 -17.5t-42 -23.5t-38.5 -26.5l-74 -47v-361z" />
<glyph unicode="c" horiz-adv-x="1216" d="M63 449v190q0 125 47.5 219t130.5 156.5t195.5 92.5t243.5 30q59 0 120.5 -5.5t123 -15.5t120 -28t107.5 -39v-377h-350v112q-18 6 -34.5 9.5t-31 5.5t-27 2h-28.5q-39 0 -69.5 -11.5t-53 -32t-34 -50t-11.5 -68.5v-127q0 -53 12.5 -90t38 -59.5t64.5 -33t94 -10.5 q41 0 89 3.5t97 9.5t99.5 15t97.5 22h16v-314q-43 -16 -100 -30.5t-118.5 -22.5t-121 -13t-108.5 -5q-137 0 -248 23.5t-191.5 77.5t-125 144t-44.5 220z" />
<glyph unicode="d" horiz-adv-x="1406" d="M63 383v192q0 125 42 225.5t119 172t182.5 109.5t232.5 38h209v416h448v-1536h-448v152l-72 -48q-43 -29 -82 -50t-82 -36.5t-92 -24.5t-104 -9q-88 0 -154.5 27.5t-111 79.5t-66 126t-21.5 166zM512 449q0 -33 4 -55.5t14.5 -39t30 -26t47.5 -9.5q20 0 42 6.5t43.5 16.5 t40.5 22.5t42 26.5l72 49v361h-96q-61 0 -105.5 -13.5t-74 -40t-45 -69.5t-15.5 -103v-126z" />
<glyph unicode="e" horiz-adv-x="1327" d="M63 449v206q0 127 51.5 220.5t142.5 150.5t209 84t255 27q111 0 207 -19.5t172 -62.5t120 -115t44 -172q0 -90 -27 -152.5t-78 -99.5t-124.5 -52t-170.5 -15h-352v-17q0 -29 17.5 -50.5t47 -34.5t63.5 -20.5t65 -7.5q49 0 102 3.5t108.5 9.5t108.5 15t96 22h17v-328 q-53 -14 -110.5 -25.5t-116 -18.5t-118 -10t-120.5 -3q-131 0 -240.5 26.5t-192.5 81.5t-129.5 144.5t-46.5 212.5zM512 625h240q23 0 40 4t29.5 14t19.5 25.5t7 36.5q0 27 -13.5 45t-35 29.5t-48 16.5t-55.5 5q-43 0 -76.5 -9.5t-58 -29t-37 -50t-12.5 -71.5v-16z" />
<glyph unicode="f" horiz-adv-x="751" d="M0 801v319h127v33q0 92 29.5 164t85 121t133.5 73.5t170 24.5h256v-297h-66q-49 0 -74.5 -2t-45 -11t-30 -30.5t-10.5 -58.5v-17h209v-319h-209v-801h-448v801h-127z" />
<glyph unicode="g" horiz-adv-x="1423" d="M63 471v129q0 127 43.5 224.5t123 164t188 99t237.5 32.5h658v-960q0 -127 -41 -228.5t-118 -172t-183.5 -107.5t-235.5 -37h-512v322h289q96 0 157.5 7t105.5 30.5t66.5 71.5t22.5 130v8l-49 -24q-49 -25 -85 -41.5t-77 -28.5t-87 -19.5t-101 -7.5q-96 0 -171 28 t-126 80t-78 128t-27 172zM512 528q0 -31 6 -54t20.5 -39.5t36 -26t50.5 -9.5t52 3.5t42.5 9.5t23 7t58.5 21l63 25v336h-112q-57 0 -101.5 -12.5t-75 -39t-47 -68.5t-16.5 -97v-56z" />
<glyph unicode="h" horiz-adv-x="1423" d="M113 0v1536h446v-567l49 30q55 37 93 60.5t79 41t89.5 27t107.5 9.5q80 0 142.5 -25t105.5 -71t65.5 -111.5t22.5 -145.5v-784h-449v696q0 25 -4 44.5t-12 32.5t-24.5 20.5t-39.5 7.5t-48 -11.5t-51 -26.5t-93 -67l-33 -24v-672h-446z" />
<glyph unicode="i" horiz-adv-x="704" d="M0 801v319h592v-1120h-449v801h-143zM143 1217v319h449v-319h-449z" />
<glyph unicode="j" horiz-adv-x="768" d="M-33 -63h49q57 0 93 7t57.5 26.5t32 53t10.5 89.5v688h-209v319h655v-1057q0 -104 -30.5 -187t-88 -141.5t-140.5 -89t-187 -30.5h-242v322zM209 1217v319h446v-319h-446z" />
<glyph unicode="k" horiz-adv-x="1376" d="M113 0v1536h446v-801h16l322 385h479v-16l-424 -488l432 -600v-16h-503l-306 449h-16v-449h-446z" />
<glyph unicode="l" horiz-adv-x="704" d="M0 1217v319h592v-1536h-449v1217h-143z" />
<glyph unicode="m" horiz-adv-x="2174" d="M113 0v1120h446v-151l49 30q55 37 93 60.5t79 41t89.5 27t107.5 9.5q55 0 102 -12.5t85 -35t67 -55.5t47 -73h18l64 38q132 80 132 81l38 18q41 18 90 28.5t109 10.5q80 0 142 -25t105 -71t65.5 -111.5t22.5 -145.5v-784h-448v696q0 25 -4 44.5t-12.5 32.5t-24.5 20.5 t-39 7.5t-48.5 -11.5t-51 -26.5t-93.5 -67l-30 -24v-672h-449v696q0 25 -4 44.5t-12 32.5t-24.5 20.5t-39.5 7.5t-48 -11.5t-51 -26.5t-93 -67l-33 -24v-672h-446z" />
<glyph unicode="n" horiz-adv-x="1423" d="M113 0v1120h446v-151l49 30q55 37 93 60.5t79 41t89.5 27t107.5 9.5q80 0 142.5 -25t105.5 -71t65.5 -111.5t22.5 -145.5v-784h-449v696q0 25 -4 44.5t-12 32.5t-24.5 20.5t-39.5 7.5t-48 -11.5t-51 -26.5t-93 -67l-33 -24v-672h-446z" />
<glyph unicode="o" horiz-adv-x="1343" d="M47 559q0 152 40 262.5t119 180t194.5 102.5t271.5 33q162 0 278.5 -32t193.5 -99.5t114.5 -178t37.5 -268.5q0 -152 -39.5 -261.5t-118.5 -179t-194.5 -102t-271.5 -32.5q-162 0 -279 30.5t-193.5 98t-114.5 178t-38 268.5zM496 559q0 -61 7 -104t25.5 -74t53.5 -46.5 t90 -15.5t90 15.5t53.5 46.5t25.5 74t7 104q0 63 -7 106.5t-25.5 74t-53.5 46t-90 15.5t-90 -15.5t-53.5 -46t-25.5 -73.5t-7 -107z" />
<glyph unicode="p" horiz-adv-x="1406" d="M113 -385v1505h446v-151l74 47q43 29 82 50t82 36.5t91 25t103 9.5q88 0 155.5 -29t110.5 -81t64.5 -126t21.5 -166v-190q0 -123 -41.5 -224.5t-119.5 -173t-183.5 -109.5t-230.5 -38h-209v-385h-446zM559 319h96q61 0 106.5 13.5t75 40t45 69.5t15.5 103v127 q0 33 -4 55.5t-14.5 38.5t-30 25.5t-47.5 9.5q-20 0 -43 -6.5t-44.5 -17.5t-42 -23.5t-38.5 -26.5l-74 -47v-361z" />
<glyph unicode="q" horiz-adv-x="1406" d="M63 385v190q0 125 42 225.5t120 172t183.5 109.5t232.5 38h655v-1505h-448v537l-72 -48q-43 -29 -82 -50t-82 -36.5t-92 -24.5t-104 -9q-88 0 -154.5 28.5t-111 80.5t-66 126t-21.5 166zM512 449q0 -33 4 -55.5t14.5 -39t30 -26t47.5 -9.5q20 0 42 6.5t43.5 16.5 t40.5 22.5t42 26.5l72 49v361h-96q-61 0 -105.5 -13.5t-74 -40t-45 -69.5t-15.5 -103v-126z" />
<glyph unicode="r" horiz-adv-x="960" d="M113 0v1120h446v-129q25 33 56.5 59.5t69.5 46t80 30t83 10.5h129v-353h-146q-41 0 -75.5 -2t-68.5 -9t-66.5 -19.5t-61.5 -32.5v-721h-446z" />
<glyph unicode="s" horiz-adv-x="1200" d="M63 16v328h17q47 -8 101.5 -16.5t108.5 -13.5t102 -8t87 -3q27 0 55.5 1t60.5 6t54.5 15.5t22.5 26.5q0 12 -12.5 20.5t-30 14.5t-76.5 21l-176 41q-76 16 -133.5 42.5t-98.5 65.5t-61.5 93.5t-20.5 125.5q0 102 53.5 174t141.5 112t195.5 57.5t226.5 17.5q45 0 95 -3.5 t101.5 -8.5t100.5 -13t94 -16v-312h-14q-47 6 -90 12.5t-88 10.5t-93.5 6t-97.5 2q-27 0 -51.5 -1t-49 -5t-42 -14.5t-17.5 -26.5q0 -12 12.5 -20.5t32 -14.5t82.5 -20l146 -33q72 -16 130 -40t105 -60.5t74 -93t27 -134.5q0 -111 -55.5 -184.5t-149.5 -113.5t-208 -55 t-245 -15q-57 0 -109.5 2t-101.5 5t-99 10t-106 15z" />
<glyph unicode="t" horiz-adv-x="864" d="M0 801v319h127v289h448v-289h256v-319h-256v-289q0 -53 9.5 -89t29 -58.5t53 -34t85.5 -11.5h112v-319h-289q-109 0 -191.5 26.5t-140 81t-87 136.5t-29.5 188v369h-127z" />
<glyph unicode="u" horiz-adv-x="1423" d="M113 336v784h446v-696q0 -25 4 -44.5t13.5 -32.5t24.5 -20.5t40 -7.5q23 0 48.5 10.5t51 27t45 31.5t45.5 36l33 25v671h449v-1120h-449v152l-49 -31q-55 -37 -92 -59.5t-79 -40t-90 -27.5t-105 -10q-80 0 -143.5 24.5t-106.5 70.5t-64.5 111.5t-21.5 145.5z" />
<glyph unicode="v" d="M47 831v289h449v-223q0 -96 10 -187.5t29.5 -172t48 -144t63.5 -104.5q35 41 61.5 104.5t43 143t24.5 171t8 189.5v223h449v-289q0 -135 -35 -268t-88 -246.5t-110.5 -195.5t-102.5 -121h-528q-45 39 -100.5 121t-105.5 194.5t-83 246.5t-33 269z" />
<glyph unicode="w" horiz-adv-x="1888" d="M47 831v289h449v-223q0 -102 6 -190.5t19.5 -164t37 -137t57.5 -102.5q35 41 58.5 102.5t37 137t18.5 164t5 190.5v223h418v-223q0 -102 5 -190.5t18.5 -164t37 -137t58.5 -102.5q35 41 58.5 102.5t36.5 137t19.5 164t6.5 190.5v223h446v-289q0 -135 -31.5 -269 t-82 -246.5t-105.5 -194.5t-100 -121h-433q-12 12 -32.5 42t-44 71t-43 83t-31.5 76q-12 -35 -33.5 -76.5t-47.5 -81.5t-49.5 -71t-37.5 -43h-432q-43 37 -94.5 119t-95.5 195.5t-71.5 246.5t-27.5 270z" />
<glyph unicode="x" horiz-adv-x="1216" d="M0 0v16l383 549l-367 539v16h449l149 -223l154 223h432v-16l-366 -529l383 -559v-16h-449l-166 244l-170 -244h-432z" />
<glyph unicode="y" horiz-adv-x="1423" d="M113 512v608h446v-512q0 -39 4 -64.5t16.5 -43t35 -26.5t57.5 -9q20 0 39.5 3t37 8t34 12.5t32.5 15.5l49 24v592h449v-944q0 -131 -40 -235.5t-116 -177t-183.5 -110.5t-238.5 -38h-495v322h272q98 0 159.5 8t104.5 33.5t65.5 76.5t22.5 138v57l-55 -35 q-31 -18 -63.5 -33.5t-69.5 -28t-79 -18.5t-85 -6q-96 0 -171 23.5t-125 71.5t-76.5 120t-26.5 168z" />
<glyph unicode="z" horiz-adv-x="1183" d="M63 0v240q53 43 121 105.5t137.5 139t135 158.5t118.5 158h-512v319h1041v-256q-35 -63 -84 -136t-105.5 -146.5t-115 -140t-111.5 -122.5h432v-319h-1057z" />
<glyph unicode="{" horiz-adv-x="1071" d="M63 487v306q84 6 134.5 22t77 44t35.5 67t9 98v160q0 88 34 154.5t95.5 110.5t146.5 65.5t189 21.5h224v-352h-97q-53 0 -82.5 -10.5t-42 -33t-15.5 -56t-3 -107.5v-33q0 -72 -20.5 -125t-56.5 -88t-83 -56.5t-104 -33.5q57 -14 104 -34.5t83 -56.5t56.5 -89t20.5 -125 v-33q0 -74 3 -107.5t15.5 -56t42 -33t82.5 -10.5h97v-352h-224q-104 0 -189 21.5t-146.5 65.5t-95.5 110.5t-34 154.5v160q0 59 -9 98t-35.5 67t-77 44t-134.5 22z" />
<glyph unicode="|" horiz-adv-x="735" d="M193 -385v2050h352v-2050h-352z" />
<glyph unicode="}" horiz-adv-x="1071" d="M96 96h97q53 0 82.5 10.5t42 33t15.5 56t3 107.5v33q0 72 20.5 125t56.5 89t83 56.5t104 34.5q-57 12 -104 33.5t-83 56.5t-56.5 88t-20.5 125v33q0 74 -3 107.5t-15.5 56t-42 33t-82.5 10.5h-97v352h223q104 0 189.5 -21.5t147 -65.5t95 -110.5t33.5 -154.5v-160 q0 -59 9.5 -98t36 -67t76.5 -44t134 -22v-306q-84 -6 -134 -22t-76.5 -44t-36 -67t-9.5 -98v-160q0 -88 -33.5 -154.5t-95 -110.5t-147 -65.5t-189.5 -21.5h-223v352z" />
<glyph unicode="~" d="M127 432v361q14 27 42 52t63.5 45.5t75.5 33t81 12.5q49 0 111.5 -17.5t158 -52.5t147.5 -50t89 -15q41 0 77 8t65.5 25.5t54 43t43.5 58.5h16v-361q-16 -27 -44 -52t-63.5 -45.5t-75.5 -33t-81 -12.5q-49 0 -111.5 17.5t-158 52.5t-146.5 50t-88 15t-70.5 -9 t-64.5 -25.5t-58.5 -42t-48.5 -58.5h-14z" />
<glyph unicode="&#xa1;" horiz-adv-x="671" d="M113 0l22 961h402l22 -961h-446zM129 1153v383h416v-383h-416z" />
<glyph unicode="&#xa2;" d="M63 727v88q0 156 43.5 282t121 216t183 146t230.5 79v238h279v-228q41 -2 75.5 -7t64.5 -12t57.5 -15.5t58.5 -18.5v-328h-17q-31 10 -68.5 18.5t-80.5 15.5t-91.5 11.5t-95.5 4.5h-22q-84 0 -141.5 -31t-89 -86.5t-45 -126t-13.5 -158.5v-88q0 -84 15.5 -156.5t49 -130 t90 -89.5t134.5 -32h47q51 0 99 5.5t89 14.5t74 21.5t57 24.5h17v-330q-27 -12 -57.5 -22t-65.5 -19.5t-71 -15.5t-70 -10v-244h-279v250q-147 18 -256 78.5t-180.5 156t-106.5 221t-35 277.5z" />
<glyph unicode="&#xa3;" d="M63 0v336h146q23 14 41 38.5t29.5 54.5t17.5 63.5t6 66.5v49h-174v336h174v39q0 137 39 240.5t114.5 173t184.5 104.5t248 35h278v-336h-176q-59 0 -101 -11t-72 -37t-44 -68t-14 -101v-39h327v-336h-327v-49q0 -33 -6 -65.5t-18.5 -61.5t-31 -53.5t-40.5 -42.5h553v-336 h-1154z" />
<glyph unicode="&#xa4;" horiz-adv-x="1024" d="M57 1071l93 94l139 -155q23 18 49.5 34.5t57 26.5t63 16.5t65.5 6.5h2q35 0 69 -6.5t63.5 -16.5t56 -25.5t47.5 -33.5l145 153l92 -94l-161 -145q16 -20 28.5 -47t22.5 -57.5t15 -65.5t5 -72q0 -41 -5 -78t-15 -68.5t-23.5 -57t-27.5 -46.5l153 -151l-90 -90l-141 155 q-23 -20 -51.5 -36.5t-60.5 -28t-64.5 -16.5t-63.5 -5t-63.5 5t-64.5 16.5t-58.5 27t-46.5 33.5l-137 -151l-89 90l148 143q-16 20 -29.5 48t-24 59.5t-16.5 67.5t-6 73q0 39 6 74.5t16.5 68.5t26 59.5t31.5 49.5zM279 676q0 -72 21.5 -126t57 -89t78.5 -52.5t84 -17.5 q45 0 88 16.5t79 51.5t56.5 91t20.5 132q0 55 -15.5 105.5t-47 90.5t-77 63.5t-102.5 23.5h-2q-55 0 -100 -22.5t-77 -61.5t-48 -92.5t-16 -112.5z" />
<glyph unicode="&#xa5;" d="M-88 1520v16h473l279 -584l280 584h408v-16l-488 -879v-129h289v-336h-289v-176h-448v176h-287v336h287v113z" />
<glyph unicode="&#xa6;" horiz-adv-x="735" d="M193 -385v834h352v-834h-352zM193 831v834h352v-834h-352z" />
<glyph unicode="&#xa7;" horiz-adv-x="1232" d="M143 264v391h25l559 -198q61 -23 117.5 -53.5t106.5 -81t82 -125t32 -172.5q0 -106 -46 -185.5t-124 -128.5t-175 -72.5t-200 -23.5h-368v338h352q27 0 48 4t35.5 14.5t21.5 25.5t7 36q0 16 -4 28.5t-14 23.5t-28.5 22.5t-49.5 21.5zM176 1128q0 106 46 184.5t124 127.5 t174 72.5t201 23.5h366v-336h-352q-27 0 -47 -5t-34.5 -14.5t-21.5 -24.5t-7 -36q0 -16 4 -28.5t14 -23.5t28.5 -21.5t49.5 -22.5l375 -135v-393h-25l-559 200q-61 20 -116.5 51t-105.5 81.5t-82 126t-32 173.5z" />
<glyph unicode="&#xa8;" horiz-adv-x="894" d="M0 1280v256h328v-256h-328zM567 1280v256h328v-256h-328z" />
<glyph unicode="&#xa9;" horiz-adv-x="1824" d="M96 784q0 166 61.5 304.5t172 238.5t260 154.5t321.5 54.5t322.5 -54.5t261.5 -154.5t172.5 -238.5t61.5 -304.5t-61.5 -304t-172.5 -238.5t-261.5 -154.5t-322.5 -54t-321.5 54t-260 154.5t-172 238.5t-61.5 304zM311 784q0 -127 43 -236.5t123 -189t190.5 -122.5 t243.5 -43t244 43t190.5 122.5t122.5 189t43 236.5t-43 236.5t-122.5 189.5t-190.5 123t-244 43t-243.5 -43t-190.5 -123t-123 -189.5t-43 -236.5zM512 784q0 109 39 190t105.5 130t152.5 72.5t182 23.5q27 0 52.5 -3t49 -7t45 -9t46.5 -14v-127q-23 6 -45.5 12.5t-46 10.5 t-49 6t-52.5 2q-55 0 -101 -18.5t-81 -54t-54.5 -90t-19.5 -124.5t19.5 -125t54.5 -91t81 -54t101 -18q31 0 58.5 3t51 7t43 10t40.5 12v-129q-23 -6 -41.5 -11t-42 -9t-51 -7t-58.5 -3q-96 0 -182 22.5t-152.5 72.5t-105.5 130t-39 190z" />
<glyph unicode="&#xaa;" horiz-adv-x="1216" d="M129 973v149q0 96 30.5 174t87 131.5t136.5 81t176 27.5h506v-864h-344v121l-66 -41q-37 -23 -62.5 -36.5t-54 -23.5t-62.5 -15t-77 -5q-70 0 -121 20.5t-83.5 59.5t-49 94t-16.5 127zM457 987q0 -31 5 -50t14 -29.5t22.5 -14.5t29.5 -4q10 0 27.5 5t37 13t38 17.5 t33.5 19.5l57 35v342h-80q-49 0 -83 -9t-56.5 -32t-33.5 -60.5t-11 -97.5v-135z" />
<glyph unicode="&#xab;" horiz-adv-x="1136" d="M63 545v286l408 289h41v-289l-209 -143l209 -143v-289h-41zM575 545v286l408 289h41v-289l-209 -143l209 -143v-289h-41z" />
<glyph unicode="&#xac;" d="M127 567v369h1024v-633h-369v264h-655z" />
<glyph unicode="&#xad;" horiz-adv-x="831" d="M63 575v353h705v-353h-705z" />
<glyph unicode="&#xae;" horiz-adv-x="1824" d="M96 784q0 166 61.5 304.5t172 238.5t260 154.5t321.5 54.5t322.5 -54.5t261.5 -154.5t172.5 -238.5t61.5 -304.5t-61.5 -304t-172.5 -238.5t-261.5 -154.5t-322.5 -54t-321.5 54t-260 154.5t-172 238.5t-61.5 304zM311 784q0 -127 43 -236.5t123 -189t190.5 -122.5 t243.5 -43t244 43t190.5 122.5t122.5 189t43 236.5t-43 236.5t-122.5 189.5t-190.5 123t-244 43t-243.5 -43t-190.5 -123t-123 -189.5t-43 -236.5zM575 369v831h322q70 0 130 -11t110.5 -40t80 -79t29.5 -126q0 -41 -12 -79t-34.5 -67.5t-53.5 -51t-68 -33.5l193 -328v-16 h-232l-151 272h-88v-272h-226zM801 776h63q35 0 63.5 8.5t50 27.5t34 52t12.5 80q0 35 -12.5 59.5t-34 40t-50 21.5t-63.5 6h-63v-295z" />
<glyph unicode="&#xaf;" horiz-adv-x="759" d="M0 1280v256h760v-256h-760z" />
<glyph unicode="&#xb0;" horiz-adv-x="1056" d="M129 1100q0 123 24.5 209t73.5 138t124 75.5t179 23.5t179 -23.5t123.5 -74.5t72 -137t23.5 -211q0 -123 -23.5 -207t-73 -136t-123.5 -77t-178 -25q-106 0 -181 25t-124 77t-72.5 136t-23.5 207zM440 1100q0 -70 3 -109t11.5 -63.5t26.5 -35.5t49 -11t47.5 11t25.5 35.5 t11 63.5t2 109t-2 109.5t-11 64t-25.5 37t-47.5 12.5t-49 -12.5t-26.5 -37t-11.5 -64.5t-3 -109z" />
<glyph unicode="&#xb1;" d="M127 0h1024v-369h-1024v369zM127 567v369h328v297h366v-297h330v-369h-330v-327h-366v327h-328z" />
<glyph unicode="&#xb2;" horiz-adv-x="843" d="M55 664v147q0 51 10.5 90t32 71t54 59.5t81.5 55.5l146 84q27 16 38 23.5t23.5 19t20.5 24.5t8 28q0 12 -6 21t-17.5 15.5t-30 9.5t-42.5 3h-295v221h389q76 0 136.5 -17.5t102.5 -50t63.5 -79t21.5 -105.5q0 -45 -15.5 -83t-42 -69.5t-62.5 -59.5t-87 -60l-103 -66 q-4 -2 -19.5 -12t-27.5 -18.5t-21.5 -15.5t-11.5 -11h390v-225h-736z" />
<glyph unicode="&#xb3;" horiz-adv-x="843" d="M66 664v217h274q27 0 49.5 3t41 9t28.5 18.5t10 30.5t-9 30.5t-24.5 19.5t-37 10.5t-48.5 3.5h-180v188h213q16 10 28.5 18.5t22.5 18.5t15.5 22.5t5.5 26.5t-9.5 23.5t-24.5 13.5t-32.5 5t-42.5 1h-268v213h346q80 0 142.5 -10t108.5 -34t70.5 -66t24.5 -105 q0 -25 -7 -48.5t-21.5 -46t-36 -44t-52.5 -37.5q33 -14 58.5 -32.5t43 -43.5t27 -56.5t9.5 -70.5q0 -66 -27 -117t-77 -88t-116.5 -55t-146.5 -18h-358z" />
<glyph unicode="&#xb4;" horiz-adv-x="624" d="M0 1280v33l201 286h424v-28l-353 -291h-272z" />
<glyph unicode="&#xb5;" horiz-adv-x="1423" d="M113 -385v1505h446v-704q0 -31 13.5 -53.5t36 -35t47 -18.5t49.5 -6q29 0 54 6t45.5 15.5t35 18.5t24.5 17v760h449v-864q0 -39 4 -75t13 -68.5t22.5 -60t31.5 -52.5h-423q-6 4 -12.5 12t-12.5 19.5t-11 25t-12 27.5q-20 -16 -43.5 -30.5t-49 -27t-53.5 -19.5t-54 -7 q-20 0 -37 1t-37.5 5t-42 12.5t-37.5 22.5v-426h-446z" />
<glyph unicode="&#xb6;" horiz-adv-x="1792" d="M63 961q0 139 44.5 247.5t123 181t183 109.5t227.5 37h535v-1921h-449v770h-86q-121 0 -226.5 36t-184 108.5t-123 181t-44.5 250.5zM1280 -385v1921h449v-1921h-449z" />
<glyph unicode="&#xb7;" horiz-adv-x="671" d="M127 512v383h418v-383h-418z" />
<glyph unicode="&#xb8;" horiz-adv-x="536" d="M0 -223h193q27 0 46 2t33.5 8t22.5 17.5t8 27.5q0 20 -9 35.5t-23.5 27t-32 18.5l-37.5 15v25h207q27 -12 50 -30.5t40.5 -42t28 -48.5t10.5 -47q0 -43 -17.5 -76t-49.5 -53.5t-72 -30.5t-87 -10h-311v162z" />
<glyph unicode="&#xb9;" horiz-adv-x="843" d="M63 1190v229l340 117h232v-872h-324v598l-215 -72h-33z" />
<glyph unicode="&#xba;" horiz-adv-x="1136" d="M96 1104q0 117 34 199.5t96.5 134t144.5 75t182 23.5t182 -23.5t143.5 -75t95.5 -134t34 -199.5t-34 -201t-95.5 -134t-143.5 -73.5t-182 -23.5t-182 23.5t-144.5 73.5t-96.5 134t-34 201zM424 1104q0 -61 7 -102t21.5 -66t39 -36t61.5 -11t60.5 11t38 36t21.5 65.5 t7 102.5q0 61 -7 102t-21.5 66.5t-39 37t-59.5 11.5q-37 0 -61.5 -11.5t-39 -37t-21.5 -66.5t-7 -102z" />
<glyph unicode="&#xbb;" horiz-adv-x="1136" d="M113 256v289l206 143l-206 143v289h39l407 -289v-286l-407 -289h-39zM625 256v289l206 143l-206 143v289h39l407 -289v-286l-407 -289h-39z" />
<glyph unicode="&#xbc;" horiz-adv-x="2111" d="M154 1190v229l340 117h231v-872h-324v598l-215 -72h-32zM575 0v33l760 1503h201v-33l-760 -1503h-201zM1231 111v172q37 63 69.5 139t57 154.5t41 154.5t24.5 141h340q-10 -74 -28.5 -145.5t-44 -140t-56 -132t-67.5 -120.5h102v153h279v-153h73v-223h-73v-111h-279v111 h-438z" />
<glyph unicode="&#xbd;" horiz-adv-x="2111" d="M154 1190v229l340 117h231v-872h-324v598l-215 -72h-32zM575 0v33l760 1503h201v-33l-760 -1503h-201zM1276 0v145q0 51 10 91t30.5 72t54.5 59.5t83 56.5l143 84q25 14 37.5 22.5t25.5 18.5t20.5 23.5t7.5 29.5q0 12 -5.5 21.5t-17.5 15.5t-29.5 8t-44.5 2h-293v223h388 q76 0 136 -17t102 -50t63.5 -79t21.5 -105q0 -45 -14.5 -84t-41 -72t-63.5 -61.5t-86 -55.5l-102 -55q-49 -31 -43 -27t-6.5 -5t-21.5 -18.5t-9 -19.5h387v-223h-733z" />
<glyph unicode="&#xbe;" horiz-adv-x="2111" d="M127 664v217h272q27 0 50.5 3t42 9t28.5 18.5t10 30.5t-9 30.5t-25.5 19.5t-38 10.5t-47.5 3.5h-181v188h215q16 10 27.5 18.5t22 18.5t15.5 22.5t5 26.5t-9 23.5t-24.5 13.5t-33 5t-41.5 1h-269v213h346q80 0 142.5 -10t108.5 -34t70.5 -66t24.5 -105q0 -25 -6 -48.5 t-20.5 -46t-36 -44t-51.5 -37.5q33 -14 57.5 -32.5t41.5 -43.5t26.5 -56.5t9.5 -70.5q0 -66 -26.5 -117t-77 -88t-117 -55t-146.5 -18h-356zM575 0v33l760 1503h201v-33l-760 -1503h-201zM1231 111v172q37 63 69.5 139t57 154.5t41 154.5t24.5 141h340q-10 -74 -28.5 -145.5 t-44 -140t-56 -132t-67.5 -120.5h102v153h279v-153h73v-223h-73v-111h-279v111h-438z" />
<glyph unicode="&#xbf;" horiz-adv-x="1064" d="M25 352q0 43 9 87t29.5 92.5t56.5 100.5t89 103l199 201v88h415v-88l-264 -295q-25 -29 -42 -53.5t-27.5 -47t-14.5 -45t-4 -46.5q0 -33 11.5 -52.5t33 -29t54 -12.5t85.5 -3h281v-352h-457q-104 0 -188 22.5t-143.5 67.5t-91 110.5t-31.5 151.5zM408 1153v383h415v-383 h-415z" />
<glyph unicode="&#xc0;" horiz-adv-x="1615" d="M33 0v16q23 98 44 180.5t41.5 154t38 130t52.5 174.5q35 119 79 254t91 261t86 223.5t63 142.5h559q25 -45 64 -141.5t86 -222t92 -262t80 -255.5q80 -270 75 -252.5t14.5 -53t41 -152.5t43.5 -181v-16h-479q-6 29 -12.5 57.5t-17.5 80.5t-20.5 90t-17.5 75h-487 q-10 -41 -19.5 -82t-18.5 -79t-17.5 -73.5t-14.5 -68.5h-446zM479 1987v28h424l201 -286v-33h-273zM633 641h325q-27 109 -49 199t-42.5 167.5t-37 136t-28.5 89.5q-12 -31 -30.5 -90.5t-41 -138t-47.5 -171t-49 -192.5z" />
<glyph unicode="&#xc1;" horiz-adv-x="1615" d="M33 0v16q23 98 44 180.5t41.5 154t38 130t52.5 174.5q35 119 79 254t91 261t86 223.5t63 142.5h559q25 -45 64 -141.5t86 -222t92 -262t80 -255.5q80 -270 75 -252.5t14.5 -53t41 -152.5t43.5 -181v-16h-479q-6 29 -12.5 57.5t-17.5 80.5t-20.5 90t-17.5 75h-487 q-10 -41 -19.5 -82t-18.5 -79t-17.5 -73.5t-14.5 -68.5h-446zM496 1696v33l200 286h424v-28l-352 -291h-272zM633 641h325q-27 109 -49 199t-42.5 167.5t-37 136t-28.5 89.5q-12 -31 -30.5 -90.5t-41 -138t-47.5 -171t-49 -192.5z" />
<glyph unicode="&#xc2;" horiz-adv-x="1615" d="M33 0v16q23 98 44 180.5t41.5 154t38 130t52.5 174.5q35 119 79 254t91 261t86 223.5t63 142.5h559q25 -45 64 -141.5t86 -222t92 -262t80 -255.5q80 -270 75 -252.5t14.5 -53t41 -152.5t43.5 -181v-16h-479q-6 29 -12.5 57.5t-17.5 80.5t-20.5 90t-17.5 75h-487 q-10 -41 -19.5 -82t-18.5 -79t-17.5 -73.5t-14.5 -68.5h-446zM319 1696v33l289 335h369l287 -335v-33h-273l-198 192l-201 -192h-273zM633 641h325q-27 109 -49 199t-42.5 167.5t-37 136t-28.5 89.5q-12 -31 -30.5 -90.5t-41 -138t-47.5 -171t-49 -192.5z" />
<glyph unicode="&#xc3;" horiz-adv-x="1615" d="M33 0v16q23 98 44 180.5t41.5 154t38 130t52.5 174.5q35 119 79 254t91 261t86 223.5t63 142.5h559q25 -45 64 -141.5t86 -222t92 -262t80 -255.5q80 -270 75 -252.5t14.5 -53t41 -152.5t43.5 -181v-16h-479q-6 29 -12.5 57.5t-17.5 80.5t-20.5 90t-17.5 75h-487 q-10 -41 -19.5 -82t-18.5 -79t-17.5 -73.5t-14.5 -68.5h-446zM457 1696v248q12 18 31.5 39.5t46 40t57.5 29.5t63 11q37 0 74 -17t87 -50t77 -47.5t51 -14.5q33 0 62.5 11.5t53 29t43 39t42.5 49.5h14v-233q-12 -20 -34.5 -43t-51.5 -44.5t-62.5 -34.5t-66.5 -13 q-37 0 -73.5 17.5t-86 50t-76 48t-53.5 15.5q-33 0 -59.5 -11.5t-47 -30t-32.5 -32.5t-45 -57h-14zM633 641h325q-27 109 -49 199t-42.5 167.5t-37 136t-28.5 89.5q-12 -31 -30.5 -90.5t-41 -138t-47.5 -171t-49 -192.5z" />
<glyph unicode="&#xc4;" horiz-adv-x="1615" d="M33 0v16q23 98 44 180.5t41.5 154t38 130t52.5 174.5q35 119 79 254t91 261t86 223.5t63 142.5h559q25 -45 64 -141.5t86 -222t92 -262t80 -255.5q80 -270 75 -252.5t14.5 -53t41 -152.5t43.5 -181v-16h-479q-6 29 -12.5 57.5t-17.5 80.5t-20.5 90t-17.5 75h-487 q-10 -41 -19.5 -82t-18.5 -79t-17.5 -73.5t-14.5 -68.5h-446zM352 1696v256h328v-256h-328zM633 641h325q-27 109 -49 199t-42.5 167.5t-37 136t-28.5 89.5q-12 -31 -30.5 -90.5t-41 -138t-47.5 -171t-49 -192.5zM920 1696v256h327v-256h-327z" />
<glyph unicode="&#xc5;" horiz-adv-x="1615" d="M33 0v16q23 98 44 180.5t41.5 154t38 130t52.5 174.5q35 119 79 254t91 261t86 223.5t63 142.5h559q25 -45 64 -141.5t86 -222t92 -262t80 -255.5q80 -270 75 -252.5t14.5 -53t41 -152.5t43.5 -181v-16h-479q-6 29 -12.5 57.5t-17.5 80.5t-20.5 90t-17.5 75h-487 q-10 -41 -19.5 -82t-18.5 -79t-17.5 -73.5t-14.5 -68.5h-446zM487 1919q0 59 24 102t65.5 71t99 40t125.5 12t124 -12t98 -40t65.5 -71t23.5 -102q0 -63 -23.5 -106.5t-64.5 -69t-97 -36.5t-126 -11t-126.5 11t-98 36.5t-65.5 68.5t-24 107zM633 641h325q-27 109 -49 199 t-42.5 167.5t-37 136t-28.5 89.5q-12 -31 -30.5 -90.5t-41 -138t-47.5 -171t-49 -192.5zM672 1919q0 -25 8 -47.5t24.5 -41t40 -28.5t56.5 -10t56.5 10t39.5 28.5t23.5 41t7.5 47.5t-7.5 48.5t-23.5 42t-39.5 28.5t-56.5 10t-56.5 -10t-40 -28.5t-24.5 -42t-8 -48.5z" />
<glyph unicode="&#xc6;" horiz-adv-x="2207" d="M33 0v16q23 98 44 180.5t41.5 154t38 130t52.5 174.5q35 119 79 254t91 261t86 223.5t63 142.5h1553v-336h-641v-256h561v-336h-561v-112q0 -49 7 -80t24.5 -48.5t48 -24.5t79.5 -7h496v-336h-719q-80 0 -144.5 20.5t-111.5 60.5t-76.5 95t-42.5 127h-452 q-10 -41 -19.5 -82t-18.5 -79t-17.5 -73.5t-14.5 -68.5h-446zM633 641h358v592h-190q-12 -31 -30.5 -90.5t-41 -138t-47.5 -171t-49 -192.5z" />
<glyph unicode="&#xc7;" horiz-adv-x="1359" d="M63 688v160q0 182 56.5 316t160 220t248 127t320.5 41q53 0 111.5 -4t117 -12t110.5 -20.5t93 -26.5v-465h-352v176q-8 2 -22.5 5t-31 6t-32 4.5t-27.5 1.5q-76 0 -133 -26t-95 -73t-56.5 -111.5t-18.5 -142.5v-176q0 -82 22.5 -149.5t65.5 -116.5t105.5 -76t142.5 -27 h63q41 0 92.5 6.5t101.5 16.5t92 21.5t67 21.5h16v-330q-33 -14 -78 -27.5t-97 -23.5t-102.5 -15t-91.5 -5h-96q-184 0 -325.5 47t-235.5 137t-142.5 221t-48.5 299zM516 -223h193q27 0 46 2t33.5 8t22.5 17.5t8 27.5q0 20 -9 35.5t-23.5 27t-32 18.5l-37.5 15v25h207 q27 -12 50 -30.5t40.5 -42t28 -48.5t10.5 -47q0 -43 -17.5 -76t-49.5 -53.5t-72 -30.5t-87 -10h-311v162z" />
<glyph unicode="&#xc8;" horiz-adv-x="1327" d="M113 416v1120h1087v-336h-641v-256h561v-336h-561v-112q0 -49 7 -80t25.5 -48.5t49.5 -24.5t80 -7h496v-336h-721q-94 0 -167 28.5t-121 83t-71.5 131t-23.5 173.5zM328 1987v28h424l200 -286v-33h-272z" />
<glyph unicode="&#xc9;" horiz-adv-x="1327" d="M113 416v1120h1087v-336h-641v-256h561v-336h-561v-112q0 -49 7 -80t25.5 -48.5t49.5 -24.5t80 -7h496v-336h-721q-94 0 -167 28.5t-121 83t-71.5 131t-23.5 173.5zM377 1696v33l198 286h424v-28l-352 -291h-270z" />
<glyph unicode="&#xca;" horiz-adv-x="1327" d="M113 416v1120h1087v-336h-641v-256h561v-336h-561v-112q0 -49 7 -80t25.5 -48.5t49.5 -24.5t80 -7h496v-336h-721q-94 0 -167 28.5t-121 83t-71.5 131t-23.5 173.5zM184 1696v33l287 335h369l288 -335v-33h-272l-201 192l-198 -192h-273z" />
<glyph unicode="&#xcb;" horiz-adv-x="1327" d="M113 416v1120h1087v-336h-641v-256h561v-336h-561v-112q0 -49 7 -80t25.5 -48.5t49.5 -24.5t80 -7h496v-336h-721q-94 0 -167 28.5t-121 83t-71.5 131t-23.5 173.5zM209 1696v256h328v-256h-328zM776 1696v256h328v-256h-328z" />
<glyph unicode="&#xcc;" horiz-adv-x="671" d="M0 1987v28h424l201 -286v-33h-273zM113 0v1536h446v-1536h-446z" />
<glyph unicode="&#xcd;" horiz-adv-x="671" d="M47 1696v33l201 286h424v-28l-353 -291h-272zM113 0v1536h446v-1536h-446z" />
<glyph unicode="&#xce;" horiz-adv-x="671" d="M-135 1696v33l287 335h368l289 -335v-33h-272l-201 192l-201 -192h-270zM113 0v1536h446v-1536h-446z" />
<glyph unicode="&#xcf;" horiz-adv-x="671" d="M-113 1696v256h328v-256h-328zM113 0v1536h446v-1536h-446zM457 1696v256h327v-256h-327z" />
<glyph unicode="&#xd0;" horiz-adv-x="1552" d="M0 625v297h113v614h622q182 0 324.5 -47t238 -135t143.5 -208t48 -265v-193q0 -152 -46 -277.5t-140.5 -218t-236.5 -142.5t-331 -50h-622v625h-113zM559 336h113q90 0 158.5 24.5t115.5 72.5t70.5 120t23.5 168v127q0 90 -23.5 155.5t-70.5 109.5t-115.5 65.5 t-158.5 21.5h-113v-278h170v-297h-170v-289z" />
<glyph unicode="&#xd1;" horiz-adv-x="1599" d="M113 0v1536h383l544 -801v801h449v-1536h-385l-545 801v-801h-446zM449 1696v248q12 18 31.5 39.5t46 40t57 29.5t63.5 11q37 0 74 -17t87 -50t76.5 -47.5t51.5 -14.5q33 0 62.5 11.5t53 29t43 39t42.5 49.5h14v-233q-12 -20 -34.5 -43t-51.5 -44.5t-62.5 -34.5 t-66.5 -13q-37 0 -74 17.5t-86 50t-75.5 48t-53.5 15.5q-33 0 -59.5 -11.5t-47 -30t-33.5 -35.5t-42 -54h-16z" />
<glyph unicode="&#xd2;" horiz-adv-x="1568" d="M63 721v94q0 178 46.5 315.5t137.5 231.5t226 142t311 48t310.5 -48t225.5 -142t137 -231.5t46 -315.5v-94q0 -178 -46 -315.5t-137 -231.5t-225.5 -142t-310.5 -48t-311 48t-226 142t-137.5 231.5t-46.5 315.5zM471 1987v28h424l201 -286v-33h-273zM512 721 q0 -96 11.5 -165t40 -118t82.5 -75.5t138 -26.5t138.5 26.5t83 75.5t40 118t11.5 165v94q0 96 -11.5 165t-40 118t-83 75.5t-138.5 26.5t-138 -26.5t-82.5 -75.5t-40 -118t-11.5 -165v-94z" />
<glyph unicode="&#xd3;" horiz-adv-x="1568" d="M63 721v94q0 178 46.5 315.5t137.5 231.5t226 142t311 48t310.5 -48t225.5 -142t137 -231.5t46 -315.5v-94q0 -178 -46 -315.5t-137 -231.5t-225.5 -142t-310.5 -48t-311 48t-226 142t-137.5 231.5t-46.5 315.5zM471 1696v33l201 286h424v-28l-353 -291h-272zM512 721 q0 -96 11.5 -165t40 -118t82.5 -75.5t138 -26.5t138.5 26.5t83 75.5t40 118t11.5 165v94q0 96 -11.5 165t-40 118t-83 75.5t-138.5 26.5t-138 -26.5t-82.5 -75.5t-40 -118t-11.5 -165v-94z" />
<glyph unicode="&#xd4;" horiz-adv-x="1568" d="M63 721v94q0 178 46.5 315.5t137.5 231.5t226 142t311 48t310.5 -48t225.5 -142t137 -231.5t46 -315.5v-94q0 -178 -46 -315.5t-137 -231.5t-225.5 -142t-310.5 -48t-311 48t-226 142t-137.5 231.5t-46.5 315.5zM311 1696v33l289 335h369l286 -335v-33h-272l-199 192 l-200 -192h-273zM512 721q0 -96 11.5 -165t40 -118t82.5 -75.5t138 -26.5t138.5 26.5t83 75.5t40 118t11.5 165v94q0 96 -11.5 165t-40 118t-83 75.5t-138.5 26.5t-138 -26.5t-82.5 -75.5t-40 -118t-11.5 -165v-94z" />
<glyph unicode="&#xd5;" horiz-adv-x="1568" d="M63 721v94q0 178 46.5 315.5t137.5 231.5t226 142t311 48t310.5 -48t225.5 -142t137 -231.5t46 -315.5v-94q0 -178 -46 -315.5t-137 -231.5t-225.5 -142t-310.5 -48t-311 48t-226 142t-137.5 231.5t-46.5 315.5zM432 1696v248q14 20 33.5 40.5t46.5 39t57.5 29.5t63.5 11 q37 0 72.5 -16t85 -50t76 -48.5t53.5 -14.5q33 0 62.5 11.5t53 29t43 39t41.5 49.5h17v-233q-14 -20 -37 -43t-51.5 -44.5t-62.5 -34.5t-66 -13q-37 0 -73 17.5t-85 50t-76 48t-53 15.5q-33 0 -59.5 -11.5t-48 -30t-37 -36.5t-39.5 -53h-17zM512 721q0 -96 11.5 -165 t40 -118t82.5 -75.5t138 -26.5t138.5 26.5t83 75.5t40 118t11.5 165v94q0 96 -11.5 165t-40 118t-83 75.5t-138.5 26.5t-138 -26.5t-82.5 -75.5t-40 -118t-11.5 -165v-94z" />
<glyph unicode="&#xd6;" horiz-adv-x="1568" d="M63 721v94q0 178 46.5 315.5t137.5 231.5t226 142t311 48t310.5 -48t225.5 -142t137 -231.5t46 -315.5v-94q0 -178 -46 -315.5t-137 -231.5t-225.5 -142t-310.5 -48t-311 48t-226 142t-137.5 231.5t-46.5 315.5zM336 1696v256h328v-256h-328zM512 721q0 -96 11.5 -165 t40 -118t82.5 -75.5t138 -26.5t138.5 26.5t83 75.5t40 118t11.5 165v94q0 96 -11.5 165t-40 118t-83 75.5t-138.5 26.5t-138 -26.5t-82.5 -75.5t-40 -118t-11.5 -165v-94zM903 1696v256h330v-256h-330z" />
<glyph unicode="&#xd7;" d="M127 498l256 254l-256 254l260 260l254 -254l254 254l260 -260l-254 -254l254 -254l-260 -260l-254 254l-254 -254z" />
<glyph unicode="&#xd8;" horiz-adv-x="1568" d="M63 0v25l150 186q-37 45 -64.5 100.5t-47 119t-29 136t-9.5 154.5v94q0 178 46.5 315.5t137.5 231.5t226 142t311 48q66 0 126.5 -7t114.5 -21.5t103.5 -35t92.5 -46.5l75 94h207v-25l-151 -186q37 -45 65.5 -100.5t48 -120t28.5 -137t9 -152.5v-94q0 -178 -46 -315.5 t-137 -231.5t-225 -142t-311 -48q-68 0 -128 7t-114.5 20.5t-102.5 34t-91 46.5l-76 -92h-209zM512 684.5q0 -18.5 1 -36t2 -34t3 -32.5l455 557q-16 14 -34.5 25.5t-42.5 19.5t-51.5 12t-60.5 4q-84 0 -138 -26.5t-82.5 -75.5t-40 -118t-11.5 -165v-94v-36.5zM594 395 q16 -14 35.5 -25.5t43 -18.5t51 -11t60.5 -4q84 0 138.5 26.5t83 75.5t40 118t11.5 165v94v37.5t-1 35t-3 34t-4 32.5z" />
<glyph unicode="&#xd9;" horiz-adv-x="1568" d="M113 557v979h446v-936q0 -66 15.5 -116t46 -82.5t75.5 -49t105 -16.5q59 0 104 16.5t75 49t45 83t15 115.5v936h449v-977q0 -141 -49 -249.5t-140.5 -181.5t-218 -108.5t-280.5 -35.5q-162 0 -289 33.5t-216 104.5t-136 179.5t-47 255.5zM471 1987v28h424l201 -286v-33 h-273z" />
<glyph unicode="&#xda;" horiz-adv-x="1568" d="M113 557v979h446v-936q0 -66 15.5 -116t46 -82.5t75.5 -49t105 -16.5q59 0 104 16.5t75 49t45 83t15 115.5v936h449v-977q0 -141 -49 -249.5t-140.5 -181.5t-218 -108.5t-280.5 -35.5q-162 0 -289 33.5t-216 104.5t-136 179.5t-47 255.5zM471 1696v33l201 286h424v-28 l-353 -291h-272z" />
<glyph unicode="&#xdb;" horiz-adv-x="1568" d="M113 557v979h446v-936q0 -66 15.5 -116t46 -82.5t75.5 -49t105 -16.5q59 0 104 16.5t75 49t45 83t15 115.5v936h449v-977q0 -141 -49 -249.5t-140.5 -181.5t-218 -108.5t-280.5 -35.5q-162 0 -289 33.5t-216 104.5t-136 179.5t-47 255.5zM311 1696v33l289 335h369 l286 -335v-33h-272l-199 192l-200 -192h-273z" />
<glyph unicode="&#xdc;" horiz-adv-x="1568" d="M113 557v979h446v-936q0 -66 15.5 -116t46 -82.5t75.5 -49t105 -16.5q59 0 104 16.5t75 49t45 83t15 115.5v936h449v-977q0 -141 -49 -249.5t-140.5 -181.5t-218 -108.5t-280.5 -35.5q-162 0 -289 33.5t-216 104.5t-136 179.5t-47 255.5zM336 1696v256h328v-256h-328z M903 1696v256h330v-256h-330z" />
<glyph unicode="&#xdd;" horiz-adv-x="1439" d="M0 1520v16h471l281 -616l280 616h408v-16l-488 -912v-608h-448v592zM449 1696v33l198 286h424v-28l-350 -291h-272z" />
<glyph unicode="&#xde;" horiz-adv-x="1406" d="M113 0v1536h446v-193h225q145 0 253 -32.5t179.5 -99t107.5 -171t36 -247.5t-41 -255t-119 -189t-191.5 -116.5t-256.5 -39.5h-193v-193h-446zM559 528h113q70 0 116 15.5t72.5 47.5t38.5 81t12 121q0 63 -13 104t-43 65.5t-73.5 35t-109.5 10.5h-113v-480z" />
<glyph unicode="&#xdf;" horiz-adv-x="1679" d="M0 801v319h129v17q0 90 48 164.5t134 127t198 80t234 27.5q119 0 228.5 -17.5t200 -56.5t143.5 -104.5t53 -157.5q0 -51 -14.5 -91t-37 -70.5t-46 -52t-62.5 -50.5q-12 -10 -22 -20.5t-18.5 -22.5t-12.5 -25.5t-4 -27.5q0 -20 7 -34.5t20.5 -26t29 -18.5t39.5 -18l66 -22 q92 -35 132 -52.5t85 -53t73.5 -92t28.5 -138.5q0 -113 -49 -191.5t-132 -124.5t-184.5 -65.5t-209.5 -19.5q-41 0 -86 2t-95.5 6t-98.5 12t-89 21v327h17q37 -12 79.5 -21t85.5 -15.5t81 -9.5t65 -3q25 0 50.5 2t49 9.5t37.5 20.5t14 34q0 16 -6 28.5t-16 21.5t-25.5 15 t-40.5 15l-96 30q-74 27 -128 54.5t-91 64.5t-56.5 85t-19.5 110q0 31 8.5 58.5t21.5 53t29.5 47t36.5 39.5q16 16 47 43t47.5 41.5t29 34.5t12.5 43q0 20 -8.5 36.5t-26 28t-47 16.5t-70.5 5t-76 -11t-60.5 -37t-41 -68t-15.5 -99v-1024h-446v801h-129z" />
<glyph unicode="&#xe0;" horiz-adv-x="1406" d="M63 385v190q0 125 42 225.5t120 172t183.5 109.5t232.5 38h655v-1120h-448v152l-72 -48q-43 -29 -82 -50t-82 -36.5t-92 -24.5t-104 -9q-88 0 -154.5 28.5t-111 80.5t-66 126t-21.5 166zM383 1571v28h426l199 -286v-33h-273zM512 449q0 -33 4 -55.5t14.5 -39t30 -26 t47.5 -9.5q20 0 42 6.5t43.5 16.5t40.5 22.5t42 26.5l72 49v361h-96q-61 0 -105.5 -13.5t-74 -40t-45 -69.5t-15.5 -103v-126z" />
<glyph unicode="&#xe1;" horiz-adv-x="1406" d="M63 385v190q0 125 42 225.5t120 172t183.5 109.5t232.5 38h655v-1120h-448v152l-72 -48q-43 -29 -82 -50t-82 -36.5t-92 -24.5t-104 -9q-88 0 -154.5 28.5t-111 80.5t-66 126t-21.5 166zM512 449q0 -33 4 -55.5t14.5 -39t30 -26t47.5 -9.5q20 0 42 6.5t43.5 16.5 t40.5 22.5t42 26.5l72 49v361h-96q-61 0 -105.5 -13.5t-74 -40t-45 -69.5t-15.5 -103v-126zM512 1280v33l201 286h424v-28l-353 -291h-272z" />
<glyph unicode="&#xe2;" horiz-adv-x="1406" d="M63 385v190q0 125 42 225.5t120 172t183.5 109.5t232.5 38h655v-1120h-448v152l-72 -48q-43 -29 -82 -50t-82 -36.5t-92 -24.5t-104 -9q-88 0 -154.5 28.5t-111 80.5t-66 126t-21.5 166zM272 1280v33l287 336h369l289 -336v-33h-273l-201 193l-198 -193h-273zM512 449 q0 -33 4 -55.5t14.5 -39t30 -26t47.5 -9.5q20 0 42 6.5t43.5 16.5t40.5 22.5t42 26.5l72 49v361h-96q-61 0 -105.5 -13.5t-74 -40t-45 -69.5t-15.5 -103v-126z" />
<glyph unicode="&#xe3;" horiz-adv-x="1406" d="M63 385v190q0 125 42 225.5t120 172t183.5 109.5t232.5 38h655v-1120h-448v152l-72 -48q-43 -29 -82 -50t-82 -36.5t-92 -24.5t-104 -9q-88 0 -154.5 28.5t-111 80.5t-66 126t-21.5 166zM383 1280v248q14 20 33.5 40.5t46 39t57.5 30t64 11.5q37 0 73.5 -17.5t87 -50.5 t77 -47t50.5 -14q33 0 63 10t53.5 28.5t43 40t39.5 50.5h16v-236q-12 -18 -34.5 -41.5t-51 -44t-62.5 -34t-67 -13.5q-37 0 -73.5 16.5t-85.5 50t-76 48t-53 14.5q-33 0 -59.5 -11.5t-47 -28.5t-34 -33.5t-44.5 -55.5h-16zM512 449q0 -33 4 -55.5t14.5 -39t30 -26t47.5 -9.5 q20 0 42 6.5t43.5 16.5t40.5 22.5t42 26.5l72 49v361h-96q-61 0 -105.5 -13.5t-74 -40t-45 -69.5t-15.5 -103v-126z" />
<glyph unicode="&#xe4;" horiz-adv-x="1406" d="M63 385v190q0 125 42 225.5t120 172t183.5 109.5t232.5 38h655v-1120h-448v152l-72 -48q-43 -29 -82 -50t-82 -36.5t-92 -24.5t-104 -9q-88 0 -154.5 28.5t-111 80.5t-66 126t-21.5 166zM297 1280v256h328v-256h-328zM512 449q0 -33 4 -55.5t14.5 -39t30 -26t47.5 -9.5 q20 0 42 6.5t43.5 16.5t40.5 22.5t42 26.5l72 49v361h-96q-61 0 -105.5 -13.5t-74 -40t-45 -69.5t-15.5 -103v-126zM864 1280v256h328v-256h-328z" />
<glyph unicode="&#xe5;" horiz-adv-x="1406" d="M63 385v190q0 125 42 225.5t120 172t183.5 109.5t232.5 38h655v-1120h-448v152l-72 -48q-43 -29 -82 -50t-82 -36.5t-92 -24.5t-104 -9q-88 0 -154.5 28.5t-111 80.5t-66 126t-21.5 166zM408 1503q0 59 23.5 102.5t65.5 71t99 40t125 12.5t124 -12.5t98 -40t65.5 -70.5 t23.5 -103q0 -63 -23.5 -107t-65.5 -70t-97 -36t-125 -10t-126 10t-98 36t-65.5 70t-23.5 107zM512 449q0 -33 4 -55.5t14.5 -39t30 -26t47.5 -9.5q20 0 42 6.5t43.5 16.5t40.5 22.5t42 26.5l72 49v361h-96q-61 0 -105.5 -13.5t-74 -40t-45 -69.5t-15.5 -103v-126zM592 1503 q0 -25 8 -47t24.5 -40.5t40 -29t56.5 -10.5t56.5 10.5t40 29t23.5 41t7 46.5q0 25 -7 48.5t-23.5 42t-40 28.5t-56.5 10t-56.5 -10t-40 -28.5t-24.5 -42t-8 -48.5z" />
<glyph unicode="&#xe6;" horiz-adv-x="2111" d="M63 385v190q0 125 42 225.5t120 172t183.5 109.5t232.5 38h862q111 0 208 -19.5t173 -62.5t120 -114.5t44 -171.5q0 -90 -26.5 -152.5t-78 -99.5t-125 -52.5t-169.5 -15.5h-353q0 -29 17.5 -50.5t47.5 -34.5t63.5 -20.5t64.5 -7.5q49 0 102.5 3.5t108.5 9.5t108.5 15 t96.5 22h16v-328q-53 -14 -110.5 -25.5t-116 -18.5t-117.5 -10t-121 -3q-86 0 -165 11t-147.5 35.5t-123.5 63.5t-94 90h-29l-121 -80q-45 -29 -84 -50t-82 -36.5t-91 -24.5t-103 -9q-88 0 -154.5 28.5t-111 80.5t-66 126t-21.5 166zM512 449q0 -33 4 -55.5t14.5 -39t30 -26 t47.5 -9.5q20 0 42 6.5t43.5 16.5t41 22.5t41.5 26.5l72 49v199q0 23 2 44.5t5 40.5t8 38.5t11 38.5h-122q-61 0 -105.5 -13.5t-74 -40t-45 -69.5t-15.5 -103v-126zM1296 608h240q20 0 37.5 5t31 14.5t20.5 25t7 35.5q0 27 -13 45.5t-34.5 29.5t-48.5 16t-55 5q-43 0 -77 -9 t-58.5 -28.5t-37 -49t-12.5 -70.5v-19z" />
<glyph unicode="&#xe7;" horiz-adv-x="1216" d="M63 449v190q0 125 47.5 219t130.5 156.5t195.5 92.5t243.5 30q59 0 120.5 -5.5t123 -15.5t120 -27.5t107.5 -39.5v-377h-350v112q-18 6 -34.5 9.5t-31 5.5t-27 2h-28.5q-39 0 -69.5 -11.5t-53 -32t-34 -50t-11.5 -68.5v-127q0 -53 12.5 -90t38 -59.5t64.5 -33t94 -10.5 q41 0 89 3.5t97 9.5t99.5 15t97.5 22h16v-314q-43 -16 -100 -30.5t-118.5 -22.5t-121 -13t-108.5 -5q-137 0 -248 23.5t-191.5 77.5t-125 144t-44.5 220zM365 -223h190q27 0 47.5 2t34.5 8t22.5 17.5t8.5 27.5q0 20 -9.5 35.5t-23.5 27t-31.5 18.5t-40.5 15v25h209 q27 -12 50.5 -30.5t41 -42t26.5 -48.5t9 -47q0 -43 -17.5 -76t-48 -53.5t-70.5 -30.5t-87 -10h-311v162z" />
<glyph unicode="&#xe8;" horiz-adv-x="1327" d="M63 449v206q0 127 51.5 220.5t142.5 150.5t209 84t255 27q111 0 207 -19.5t172 -62.5t120 -115t44 -172q0 -90 -27 -152.5t-78 -99.5t-124.5 -52t-170.5 -15h-352v-17q0 -29 17.5 -50.5t47 -34.5t63.5 -20.5t65 -7.5q49 0 102 3.5t108.5 9.5t108.5 15t96 22h17v-328 q-53 -14 -110.5 -25.5t-116 -18.5t-118 -10t-120.5 -3q-131 0 -240.5 26.5t-192.5 81.5t-129.5 144.5t-46.5 212.5zM319 1571v28h424l201 -286v-33h-272zM512 625h240q23 0 40 4t29.5 14t19.5 25.5t7 36.5q0 27 -13.5 45t-35 29.5t-48 16.5t-55.5 5q-43 0 -76.5 -9.5 t-58 -29t-37 -50t-12.5 -71.5v-16z" />
<glyph unicode="&#xe9;" horiz-adv-x="1327" d="M63 449v206q0 127 51.5 220.5t142.5 150.5t209 84t255 27q111 0 207 -19.5t172 -62.5t120 -115t44 -172q0 -90 -27 -152.5t-78 -99.5t-124.5 -52t-170.5 -15h-352v-17q0 -29 17.5 -50.5t47 -34.5t63.5 -20.5t65 -7.5q49 0 102 3.5t108.5 9.5t108.5 15t96 22h17v-328 q-53 -14 -110.5 -25.5t-116 -18.5t-118 -10t-120.5 -3q-131 0 -240.5 26.5t-192.5 81.5t-129.5 144.5t-46.5 212.5zM391 1280v33l201 286h424v-28l-352 -291h-273zM512 625h240q23 0 40 4t29.5 14t19.5 25.5t7 36.5q0 27 -13.5 45t-35 29.5t-48 16.5t-55.5 5 q-43 0 -76.5 -9.5t-58 -29t-37 -50t-12.5 -71.5v-16z" />
<glyph unicode="&#xea;" horiz-adv-x="1327" d="M63 449v206q0 127 51.5 220.5t142.5 150.5t209 84t255 27q111 0 207 -19.5t172 -62.5t120 -115t44 -172q0 -90 -27 -152.5t-78 -99.5t-124.5 -52t-170.5 -15h-352v-17q0 -29 17.5 -50.5t47 -34.5t63.5 -20.5t65 -7.5q49 0 102 3.5t108.5 9.5t108.5 15t96 22h17v-328 q-53 -14 -110.5 -25.5t-116 -18.5t-118 -10t-120.5 -3q-131 0 -240.5 26.5t-192.5 81.5t-129.5 144.5t-46.5 212.5zM209 1280v33l287 336h368l287 -336v-33h-270l-201 193l-201 -193h-270zM512 625h240q23 0 40 4t29.5 14t19.5 25.5t7 36.5q0 27 -13.5 45t-35 29.5t-48 16.5 t-55.5 5q-43 0 -76.5 -9.5t-58 -29t-37 -50t-12.5 -71.5v-16z" />
<glyph unicode="&#xeb;" horiz-adv-x="1327" d="M63 449v206q0 127 51.5 220.5t142.5 150.5t209 84t255 27q111 0 207 -19.5t172 -62.5t120 -115t44 -172q0 -90 -27 -152.5t-78 -99.5t-124.5 -52t-170.5 -15h-352v-17q0 -29 17.5 -50.5t47 -34.5t63.5 -20.5t65 -7.5q49 0 102 3.5t108.5 9.5t108.5 15t96 22h17v-328 q-53 -14 -110.5 -25.5t-116 -18.5t-118 -10t-120.5 -3q-131 0 -240.5 26.5t-192.5 81.5t-129.5 144.5t-46.5 212.5zM231 1280v256h328v-256h-328zM512 625h240q23 0 40 4t29.5 14t19.5 25.5t7 36.5q0 27 -13.5 45t-35 29.5t-48 16.5t-55.5 5q-43 0 -76.5 -9.5t-58 -29 t-37 -50t-12.5 -71.5v-16zM801 1280v256h327v-256h-327z" />
<glyph unicode="&#xec;" horiz-adv-x="704" d="M0 801v319h592v-1120h-449v801h-143zM16 1571v28h424l199 -286v-33h-270z" />
<glyph unicode="&#xed;" horiz-adv-x="704" d="M0 801v319h592v-1120h-449v801h-143zM55 1280v33l201 286h424v-28l-352 -291h-273z" />
<glyph unicode="&#xee;" horiz-adv-x="704" d="M-143 1280v33l286 336h369l289 -336v-33h-273l-200 193l-201 -193h-270zM0 801v319h592v-1120h-449v801h-143z" />
<glyph unicode="&#xef;" horiz-adv-x="704" d="M-121 1280v256h330v-256h-330zM0 801v319h592v-1120h-449v801h-143zM449 1280v256h327v-256h-327z" />
<glyph unicode="&#xf0;" horiz-adv-x="1376" d="M63 385v190q0 125 42 225.5t120 172t183.5 109.5t232.5 38h207v144h-232v176h232v96h448v-96h111v-176h-111v-1264h-448v152l-72 -48q-43 -29 -82 -50t-82 -36.5t-92 -24.5t-104 -9q-88 0 -154.5 28.5t-111 80.5t-66 126t-21.5 166zM512 449q0 -33 4 -55.5t14.5 -39 t30 -26t47.5 -9.5q20 0 42 6.5t43.5 16.5t40.5 22.5t42 26.5l72 49v361h-96q-61 0 -105.5 -13.5t-74 -40t-45 -69.5t-15.5 -103v-126z" />
<glyph unicode="&#xf1;" horiz-adv-x="1423" d="M113 0v1120h446v-151l49 30q55 37 93 60.5t79 41t89.5 27t107.5 9.5q80 0 142.5 -25t105.5 -71t65.5 -111.5t22.5 -145.5v-784h-449v696q0 25 -4 44.5t-12 32.5t-24.5 20.5t-39.5 7.5t-48 -11.5t-51 -26.5t-93 -67l-33 -24v-672h-446zM360 1280v248q12 18 33 39.5 t46.5 40t56 30t63.5 11.5q37 0 74 -17.5t87 -50.5t76.5 -47t51.5 -14q33 0 62.5 10t53 28.5t43 40t42.5 50.5h16v-236q-14 -20 -36.5 -42.5t-51.5 -43t-62.5 -34t-66.5 -13.5q-37 0 -74 16.5t-86 50t-75.5 48t-53.5 14.5q-33 0 -58.5 -11.5t-47 -28.5t-37 -36.5t-39.5 -52.5 h-17z" />
<glyph unicode="&#xf2;" horiz-adv-x="1343" d="M47 559q0 152 40 262.5t119 180t194.5 102.5t271.5 33q162 0 278.5 -32t193.5 -99.5t114.5 -178t37.5 -268.5q0 -152 -39.5 -261.5t-118.5 -179t-194.5 -102t-271.5 -32.5q-162 0 -279 30.5t-193.5 98t-114.5 178t-38 268.5zM360 1571v28h424l199 -286v-33h-270zM496 559 q0 -61 7 -104t25.5 -74t53.5 -46.5t90 -15.5t90 15.5t53.5 46.5t25.5 74t7 104q0 63 -7 106.5t-25.5 74t-53.5 46t-90 15.5t-90 -15.5t-53.5 -46t-25.5 -73.5t-7 -107z" />
<glyph unicode="&#xf3;" horiz-adv-x="1343" d="M47 559q0 152 40 262.5t119 180t194.5 102.5t271.5 33q162 0 278.5 -32t193.5 -99.5t114.5 -178t37.5 -268.5q0 -152 -39.5 -261.5t-118.5 -179t-194.5 -102t-271.5 -32.5q-162 0 -279 30.5t-193.5 98t-114.5 178t-38 268.5zM360 1280v33l199 286h424v-28l-350 -291h-273 zM496 559q0 -61 7 -104t25.5 -74t53.5 -46.5t90 -15.5t90 15.5t53.5 46.5t25.5 74t7 104q0 63 -7 106.5t-25.5 74t-53.5 46t-90 15.5t-90 -15.5t-53.5 -46t-25.5 -73.5t-7 -107z" />
<glyph unicode="&#xf4;" horiz-adv-x="1343" d="M47 559q0 152 40 262.5t119 180t194.5 102.5t271.5 33q162 0 278.5 -32t193.5 -99.5t114.5 -178t37.5 -268.5q0 -152 -39.5 -261.5t-118.5 -179t-194.5 -102t-271.5 -32.5q-162 0 -279 30.5t-193.5 98t-114.5 178t-38 268.5zM201 1280v33l286 336h369l289 -336v-33h-273 l-200 193l-201 -193h-270zM496 559q0 -61 7 -104t25.5 -74t53.5 -46.5t90 -15.5t90 15.5t53.5 46.5t25.5 74t7 104q0 63 -7 106.5t-25.5 74t-53.5 46t-90 15.5t-90 -15.5t-53.5 -46t-25.5 -73.5t-7 -107z" />
<glyph unicode="&#xf5;" horiz-adv-x="1343" d="M47 559q0 152 40 262.5t119 180t194.5 102.5t271.5 33q162 0 278.5 -32t193.5 -99.5t114.5 -178t37.5 -268.5q0 -152 -39.5 -261.5t-118.5 -179t-194.5 -102t-271.5 -32.5q-162 0 -279 30.5t-193.5 98t-114.5 178t-38 268.5zM319 1280v248q14 20 34 40.5t46.5 39t57 30 t63.5 11.5q37 0 74 -16.5t86 -50.5t75.5 -48t53.5 -14q33 0 61.5 10t53 28.5t44 40t40.5 50.5h16v-236q-14 -20 -36.5 -42.5t-51.5 -43t-61.5 -34t-65.5 -13.5q-37 0 -74 16.5t-86 50t-75.5 48t-53.5 14.5q-33 0 -59.5 -11.5t-47 -28.5t-33.5 -33.5t-44 -55.5h-17zM496 559 q0 -61 7 -104t25.5 -74t53.5 -46.5t90 -15.5t90 15.5t53.5 46.5t25.5 74t7 104q0 63 -7 106.5t-25.5 74t-53.5 46t-90 15.5t-90 -15.5t-53.5 -46t-25.5 -73.5t-7 -107z" />
<glyph unicode="&#xf6;" horiz-adv-x="1343" d="M47 559q0 152 40 262.5t119 180t194.5 102.5t271.5 33q162 0 278.5 -32t193.5 -99.5t114.5 -178t37.5 -268.5q0 -152 -39.5 -261.5t-118.5 -179t-194.5 -102t-271.5 -32.5q-162 0 -279 30.5t-193.5 98t-114.5 178t-38 268.5zM223 1280v256h330v-256h-330zM496 559 q0 -61 7 -104t25.5 -74t53.5 -46.5t90 -15.5t90 15.5t53.5 46.5t25.5 74t7 104q0 63 -7 106.5t-25.5 74t-53.5 46t-90 15.5t-90 -15.5t-53.5 -46t-25.5 -73.5t-7 -107zM793 1280v256h327v-256h-327z" />
<glyph unicode="&#xf7;" d="M129 567v369h1024v-369h-1024zM457 104v375h366v-375h-366zM457 1024v377h366v-377h-366z" />
<glyph unicode="&#xf8;" horiz-adv-x="1343" d="M47 0v25l119 122q-31 35 -52.5 78t-37 94.5t-22.5 110.5t-7 129q0 152 40 262.5t119 180t194.5 102.5t271.5 33q57 0 108 -4.5t97.5 -12.5t87.5 -20.5t77 -28.5l45 49h209v-24l-118 -125q29 -35 51 -77t37.5 -93t22.5 -111.5t7 -130.5q0 -152 -39.5 -261.5t-118.5 -179 t-195 -102t-271 -32.5q-57 0 -109.5 4t-98.5 11t-88 19.5t-77 28.5l-43 -47h-209zM496 527.5q0 -7.5 1 -15.5t1 -14l270 284q-10 4 -20.5 8.5t-21.5 6.5t-25.5 3t-28.5 1q-55 0 -90 -15.5t-53.5 -46t-25.5 -74t-7 -106.5v-17v-14.5zM575 338q8 -4 19.5 -8t24 -6t26 -3.5 t27.5 -1.5q55 0 90 15.5t53.5 46.5t25.5 74t7 104v15.5t-1 17.5t-1 17v14z" />
<glyph unicode="&#xf9;" horiz-adv-x="1423" d="M113 336v784h446v-696q0 -25 4 -44.5t13.5 -32.5t24.5 -20.5t40 -7.5q23 0 48.5 10.5t51 27t45 31.5t45.5 36l33 25v671h449v-1120h-449v152l-49 -31q-55 -37 -92 -59.5t-79 -40t-90 -27.5t-105 -10q-80 0 -143.5 24.5t-106.5 70.5t-64.5 111.5t-21.5 145.5zM369 1571v28 h424l198 -286v-33h-270z" />
<glyph unicode="&#xfa;" horiz-adv-x="1423" d="M113 336v784h446v-696q0 -25 4 -44.5t13.5 -32.5t24.5 -20.5t40 -7.5q23 0 48.5 10.5t51 27t45 31.5t45.5 36l33 25v671h449v-1120h-449v152l-49 -31q-55 -37 -92 -59.5t-79 -40t-90 -27.5t-105 -10q-80 0 -143.5 24.5t-106.5 70.5t-64.5 111.5t-21.5 145.5zM432 1280v33 l201 286h424v-28l-352 -291h-273z" />
<glyph unicode="&#xfb;" horiz-adv-x="1423" d="M113 336v784h446v-696q0 -25 4 -44.5t13.5 -32.5t24.5 -20.5t40 -7.5q23 0 48.5 10.5t51 27t45 31.5t45.5 36l33 25v671h449v-1120h-449v152l-49 -31q-55 -37 -92 -59.5t-79 -40t-90 -27.5t-105 -10q-80 0 -143.5 24.5t-106.5 70.5t-64.5 111.5t-21.5 145.5zM240 1280v33 l288 336h367l289 -336v-33h-273l-198 193l-201 -193h-272z" />
<glyph unicode="&#xfc;" horiz-adv-x="1423" d="M113 336v784h446v-696q0 -25 4 -44.5t13.5 -32.5t24.5 -20.5t40 -7.5q23 0 48.5 10.5t51 27t45 31.5t45.5 36l33 25v671h449v-1120h-449v152l-49 -31q-55 -37 -92 -59.5t-79 -40t-90 -27.5t-105 -10q-80 0 -143.5 24.5t-106.5 70.5t-64.5 111.5t-21.5 145.5zM264 1280 v256h328v-256h-328zM831 1280v256h328v-256h-328z" />
<glyph unicode="&#xfd;" horiz-adv-x="1423" d="M113 512v608h446v-512q0 -39 4 -64.5t16.5 -43t35 -26.5t57.5 -9q20 0 39.5 3t37 8t34 12.5t32.5 15.5l49 24v592h449v-944q0 -131 -40 -235.5t-116 -177t-183.5 -110.5t-238.5 -38h-495v322h272q98 0 159.5 8t104.5 33.5t65.5 76.5t22.5 138v57l-55 -35 q-31 -18 -63.5 -33.5t-69.5 -28t-79 -18.5t-85 -6q-96 0 -171 23.5t-125 71.5t-76.5 120t-26.5 168zM432 1280v33l201 286h424v-28l-352 -291h-273z" />
<glyph unicode="&#xfe;" horiz-adv-x="1406" d="M113 -385v1921h446v-567l74 47q43 29 82 50t82 36.5t91 25t103 9.5q88 0 155.5 -29t110.5 -81t64.5 -126t21.5 -166v-190q0 -123 -41.5 -224.5t-119.5 -173t-183.5 -109.5t-230.5 -38h-209v-385h-446zM559 319h96q61 0 106.5 13.5t75 40t45 69.5t15.5 103v127 q0 33 -4 55.5t-14.5 38.5t-30 25.5t-47.5 9.5q-20 0 -43 -6.5t-44.5 -17.5t-42 -23.5t-38.5 -26.5l-74 -47v-361z" />
<glyph unicode="&#xff;" horiz-adv-x="1423" d="M113 512v608h446v-512q0 -39 4 -64.5t16.5 -43t35 -26.5t57.5 -9q20 0 39.5 3t37 8t34 12.5t32.5 15.5l49 24v592h449v-944q0 -131 -40 -235.5t-116 -177t-183.5 -110.5t-238.5 -38h-495v322h272q98 0 159.5 8t104.5 33.5t65.5 76.5t22.5 138v57l-55 -35 q-31 -18 -63.5 -33.5t-69.5 -28t-79 -18.5t-85 -6q-96 0 -171 23.5t-125 71.5t-76.5 120t-26.5 168zM272 1280v256h328v-256h-328zM840 1280v256h327v-256h-327z" />
<glyph unicode="&#x152;" horiz-adv-x="2207" d="M63 721v94q0 176 46.5 311.5t137.5 226.5t226 137t311 46h1297v-336h-641v-256h561v-336h-561v-272h655v-336h-1311q-176 0 -311 46t-226 137t-137.5 226.5t-46.5 311.5zM512 721q0 -96 11.5 -165t40 -118t82.5 -75.5t138 -26.5h207v864h-198q-82 0 -137.5 -26.5 t-86 -76.5t-44 -120t-13.5 -162v-94z" />
<glyph unicode="&#x153;" horiz-adv-x="2111" d="M47 559q0 152 40 262.5t119 180t194.5 102.5t271.5 33q66 0 124 -5.5t108 -16.5t94 -27.5t81 -38.5q43 23 92.5 39t103.5 27t111.5 16.5t116.5 5.5q111 0 208 -19.5t173 -62.5t120 -115t44 -172q0 -90 -26.5 -152.5t-78 -99.5t-125 -52t-169.5 -15h-353v-17 q0 -29 17.5 -50.5t47.5 -34.5t63.5 -20.5t64.5 -7.5q49 0 102.5 3.5t108.5 9.5t108.5 15t96.5 22h16v-328q-53 -14 -110.5 -25.5t-116 -18.5t-117.5 -10t-121 -3q-57 0 -111.5 5t-104.5 15t-95 25.5t-84 38.5q-37 -20 -79 -37t-91 -27t-103.5 -15t-115.5 -5 q-162 0 -279 30.5t-193.5 98t-114.5 178t-38 268.5zM496 559q0 -61 7 -104t25.5 -74t53.5 -46.5t90 -15.5t90 15.5t53.5 46.5t25.5 74t7 104q0 63 -7 106.5t-25.5 74t-53.5 46t-90 15.5t-90 -15.5t-53.5 -46t-25.5 -73.5t-7 -107zM1296 625h240q20 0 37.5 4t31 14t20.5 25.5 t7 36.5q0 27 -13 45t-34.5 29.5t-48.5 16.5t-55 5q-43 0 -77 -9.5t-58.5 -29t-37 -50t-12.5 -71.5v-16z" />
<glyph unicode="&#x178;" horiz-adv-x="1439" d="M0 1520v16h471l281 -616l280 616h408v-16l-488 -912v-608h-448v592zM303 1696v256h330v-256h-330zM872 1696v256h328v-256h-328z" />
<glyph unicode="&#x2c6;" horiz-adv-x="944" d="M0 1280v33l289 336h366l289 -336v-33h-272l-201 193l-199 -193h-272z" />
<glyph unicode="&#x2dc;" horiz-adv-x="704" d="M0 1280v248q14 20 33.5 40.5t46 39t57.5 30t64 11.5q37 0 72.5 -16.5t85 -50.5t76 -48t52.5 -14q33 0 63 10t53.5 28.5t43 40t41.5 50.5h17v-236q-14 -20 -37 -42.5t-51.5 -43t-62.5 -34t-67 -13.5q-37 0 -72.5 16.5t-84.5 50t-76 48t-53 14.5q-33 0 -59.5 -11.5 t-48 -28.5t-37 -36.5t-40.5 -52.5h-16z" />
<glyph unicode="&#x2000;" horiz-adv-x="1072" />
<glyph unicode="&#x2001;" horiz-adv-x="2144" />
<glyph unicode="&#x2002;" horiz-adv-x="1072" />
<glyph unicode="&#x2003;" horiz-adv-x="2144" />
<glyph unicode="&#x2004;" horiz-adv-x="714" />
<glyph unicode="&#x2005;" horiz-adv-x="536" />
<glyph unicode="&#x2006;" horiz-adv-x="357" />
<glyph unicode="&#x2007;" horiz-adv-x="357" />
<glyph unicode="&#x2008;" horiz-adv-x="268" />
<glyph unicode="&#x2009;" horiz-adv-x="428" />
<glyph unicode="&#x200a;" horiz-adv-x="119" />
<glyph unicode="&#x2010;" horiz-adv-x="831" d="M63 575v353h705v-353h-705z" />
<glyph unicode="&#x2011;" horiz-adv-x="831" d="M63 575v353h705v-353h-705z" />
<glyph unicode="&#x2012;" horiz-adv-x="831" d="M63 575v353h705v-353h-705z" />
<glyph unicode="&#x2013;" horiz-adv-x="1024" d="M63 575v353h898v-353h-898z" />
<glyph unicode="&#x2014;" horiz-adv-x="2048" d="M63 575v353h1922v-353h-1922z" />
<glyph unicode="&#x2018;" horiz-adv-x="671" d="M80 897v160l297 479h248l-129 -639h-416z" />
<glyph unicode="&#x2019;" horiz-adv-x="671" d="M47 897l129 639h416v-160l-295 -479h-250z" />
<glyph unicode="&#x201a;" horiz-adv-x="671" d="M33 -256l127 641h415v-162l-294 -479h-248z" />
<glyph unicode="&#x201c;" horiz-adv-x="1232" d="M80 961v159l297 479h248l-129 -638h-416zM641 961v159l295 479h248l-127 -638h-416z" />
<glyph unicode="&#x201d;" horiz-adv-x="1232" d="M47 895l129 641h416v-160l-295 -481h-250zM608 895l127 641h416v-160l-295 -481h-248z" />
<glyph unicode="&#x201e;" horiz-adv-x="1232" d="M33 -256l127 641h415v-162l-294 -479h-248zM592 -256l129 641h416v-162l-297 -479h-248z" />
<glyph unicode="&#x2022;" horiz-adv-x="1024" d="M129 641q0 92 32 165t86 121t122.5 72.5t142.5 24.5t142.5 -24.5t124 -72.5t87 -121t31.5 -165t-31.5 -165t-87 -122t-124 -73.5t-142.5 -24.5t-142.5 24.5t-122.5 73.5t-86 122t-32 165z" />
<glyph unicode="&#x2026;" horiz-adv-x="1918" d="M127 0v383h418v-383h-418zM752 0v383h415v-383h-415zM1376 0v383h416v-383h-416z" />
<glyph unicode="&#x202f;" horiz-adv-x="428" />
<glyph unicode="&#x2039;" horiz-adv-x="624" d="M63 545v286l408 289h41v-289l-209 -143l209 -143v-289h-41z" />
<glyph unicode="&#x203a;" horiz-adv-x="624" d="M113 256v289l206 143l-206 143v289h39l407 -289v-286l-407 -289h-39z" />
<glyph unicode="&#x205f;" horiz-adv-x="536" />
<glyph unicode="&#x20ac;" d="M33 512v201h160v110h-160v201h160v8q0 133 52 232.5t141 163t204 94t241 30.5h50q41 0 85 -5t86 -14t76.5 -20.5t55.5 -23.5v-330h-17q-27 12 -60.5 22.5t-72.5 18.5t-77.5 12.5t-75.5 4.5h-41q-39 0 -74 -9.5t-63.5 -32t-45 -59.5t-16.5 -92h416v-201h-416v-110h416 v-201h-416q0 -57 17.5 -95t46 -59.5t60.5 -30t66 -8.5h41q41 0 85 6.5t84 16.5t73 21.5t53 21.5h17v-330q-20 -10 -53 -22.5t-76 -23.5t-90 -18t-93 -7h-63q-127 0 -237.5 29.5t-195.5 93t-133 165t-50 240.5h-160z" />
<glyph unicode="&#x2122;" horiz-adv-x="1888" d="M63 1327v209h672v-209h-198v-622h-273v622h-201zM831 705v831h289l176 -311l177 311h286v-831h-270v415l-146 -256h-96l-143 240v-399h-273z" />
<glyph unicode="&#x25fc;" horiz-adv-x="1116" d="M0 0v1116h1116v-1116h-1116z" />
<glyph unicode="&#xfb03;" horiz-adv-x="2111" d="M0 801v319h127v33q0 92 29.5 164t85 121t133.5 73.5t170 24.5h207v-297h-17q-49 0 -74.5 -2t-45 -11t-30 -30.5t-10.5 -58.5v-17h265v33q0 92 29.5 164t85 121t132 73.5t168.5 24.5h209v-297h-16q-49 0 -74.5 -2t-45 -11t-30 -30.5t-10.5 -58.5v-17h713v-1120h-449v801 h-264v-801h-448v801h-265v-801h-448v801h-127zM1552 1217v319h449v-319h-449z" />
<glyph unicode="&#xfb04;" horiz-adv-x="2111" d="M0 801v319h127v33q0 92 29.5 164t85 121t133.5 73.5t170 24.5h207v-297h-17q-49 0 -74.5 -2t-45 -11t-30 -30.5t-10.5 -58.5v-17h265v33q0 92 29.5 164t85 121t132 73.5t168.5 24.5h746v-1536h-449v1239h-104q-49 0 -74.5 -2t-45 -11t-30 -30.5t-10.5 -58.5v-17h158v-319 h-158v-801h-448v801h-265v-801h-448v801h-127z" />
</font>
</defs>
</svg>
